<mxfile host="Electron" modified="2023-09-06T11:52:05.042Z" agent="Mozilla/5.0 (Windows NT 10.0; Win64; x64) AppleWebKit/537.36 (KHTML, like Gecko) draw.io/21.6.5 Chrome/114.0.5735.243 Electron/25.3.1 Safari/537.36" etag="nAXgclmK7zsAd67LkeNT" version="21.6.5" type="device" pages="3">
  <diagram name="v1" id="KcvaqceAmyFRrwMdn_xZ">
    <mxGraphModel dx="1503" dy="391" grid="1" gridSize="10" guides="1" tooltips="1" connect="1" arrows="1" fold="1" page="1" pageScale="1" pageWidth="827" pageHeight="1169" math="0" shadow="0">
      <root>
        <mxCell id="0" />
        <mxCell id="1" parent="0" />
        <mxCell id="WlsqMzOY9wFAaWYgSssA-2" value="Anypoint Platform" style="swimlane;whiteSpace=wrap;html=1;fillColor=#1ba1e2;fontColor=#ffffff;strokeColor=#006EAF;" parent="1" vertex="1">
          <mxGeometry x="-827" y="20" width="760" height="930" as="geometry">
            <mxRectangle x="10" y="10" width="140" height="30" as="alternateBounds" />
          </mxGeometry>
        </mxCell>
        <mxCell id="WlsqMzOY9wFAaWYgSssA-113" value="" style="curved=1;endArrow=classic;html=1;rounded=0;exitX=1;exitY=0.5;exitDx=0;exitDy=0;entryX=0;entryY=0.5;entryDx=0;entryDy=0;" parent="WlsqMzOY9wFAaWYgSssA-2" target="WlsqMzOY9wFAaWYgSssA-33" edge="1">
          <mxGeometry width="50" height="50" relative="1" as="geometry">
            <mxPoint x="400" y="795" as="sourcePoint" />
            <mxPoint x="1070" y="240" as="targetPoint" />
            <Array as="points">
              <mxPoint x="380" y="625" />
              <mxPoint x="740" y="315" />
            </Array>
          </mxGeometry>
        </mxCell>
        <mxCell id="WlsqMzOY9wFAaWYgSssA-114" value="" style="curved=1;endArrow=classic;html=1;rounded=0;exitX=1;exitY=0.75;exitDx=0;exitDy=0;entryX=0;entryY=0.5;entryDx=0;entryDy=0;" parent="WlsqMzOY9wFAaWYgSssA-2" target="WlsqMzOY9wFAaWYgSssA-36" edge="1">
          <mxGeometry width="50" height="50" relative="1" as="geometry">
            <mxPoint x="400" y="825" as="sourcePoint" />
            <mxPoint x="1080" y="260" as="targetPoint" />
            <Array as="points">
              <mxPoint x="430" y="665" />
              <mxPoint x="560" y="475" />
              <mxPoint x="870" y="315" />
            </Array>
          </mxGeometry>
        </mxCell>
        <mxCell id="IO6hgtRXoiiU4K4g2s5N-65" value="Organization" style="swimlane;whiteSpace=wrap;html=1;fillColor=#a20025;fontColor=#ffffff;strokeColor=#6F0000;" parent="WlsqMzOY9wFAaWYgSssA-2" vertex="1">
          <mxGeometry x="4" y="27" width="746" height="893" as="geometry">
            <mxRectangle x="320" y="120" width="110" height="30" as="alternateBounds" />
          </mxGeometry>
        </mxCell>
        <mxCell id="WlsqMzOY9wFAaWYgSssA-3" value="CICD_ConnectedApp" style="swimlane;whiteSpace=wrap;html=1;fillColor=#647687;fontColor=#ffffff;strokeColor=#314354;" parent="IO6hgtRXoiiU4K4g2s5N-65" vertex="1">
          <mxGeometry x="11" y="28" width="190" height="650" as="geometry">
            <mxRectangle x="20" y="40" width="160" height="30" as="alternateBounds" />
          </mxGeometry>
        </mxCell>
        <mxCell id="WlsqMzOY9wFAaWYgSssA-20" value="&lt;h1&gt;Scopes&lt;/h1&gt;&lt;p&gt;- Design Center&lt;/p&gt;&lt;p&gt;- Design Center Developer&lt;/p&gt;&lt;p&gt;- Exchange&lt;/p&gt;&lt;p&gt;- Exchange Administrator&lt;/p&gt;&lt;p&gt;- Exchange Contributor&lt;/p&gt;&lt;p&gt;- Exchange Creator&lt;/p&gt;&lt;p&gt;- Exchange Viewer&lt;/p&gt;&lt;p&gt;- General&lt;/p&gt;&lt;p&gt;- View Environment&lt;/p&gt;&lt;p&gt;- View wOrganization&lt;/p&gt;&lt;p&gt;- OpenID&lt;/p&gt;&lt;p&gt;- Profile&lt;/p&gt;&lt;p&gt;- Runtime Manager&lt;/p&gt;&lt;p&gt;- Cloudhub Organization Admin&lt;/p&gt;&lt;p&gt;- Create Applications&lt;/p&gt;&lt;p&gt;- Delete Applications&lt;/p&gt;&lt;p&gt;- Read Applications&lt;/p&gt;" style="text;html=1;strokeColor=none;fillColor=none;spacing=5;spacingTop=-20;whiteSpace=wrap;overflow=hidden;rounded=0;" parent="WlsqMzOY9wFAaWYgSssA-3" vertex="1">
          <mxGeometry x="10" y="140" width="160" height="500" as="geometry" />
        </mxCell>
        <mxCell id="WlsqMzOY9wFAaWYgSssA-101" value="&lt;h1&gt;Credentials&lt;/h1&gt;&lt;p&gt;Client ID: 123-456-789&lt;/p&gt;&lt;p&gt;Client Secret: A19d6a8fg7q&lt;/p&gt;" style="text;html=1;strokeColor=none;fillColor=none;spacing=5;spacingTop=-20;whiteSpace=wrap;overflow=hidden;rounded=0;" parent="WlsqMzOY9wFAaWYgSssA-3" vertex="1">
          <mxGeometry x="10" y="30" width="160" height="120" as="geometry" />
        </mxCell>
        <mxCell id="WlsqMzOY9wFAaWYgSssA-21" value="Organization ID" style="rounded=1;whiteSpace=wrap;html=1;fillColor=#647687;fontColor=#ffffff;strokeColor=#314354;" parent="IO6hgtRXoiiU4K4g2s5N-65" vertex="1">
          <mxGeometry x="216" y="28" width="120" height="30" as="geometry" />
        </mxCell>
        <mxCell id="WlsqMzOY9wFAaWYgSssA-117" value="ps_organization_sandbox" style="rounded=1;whiteSpace=wrap;html=1;fillColor=#647687;fontColor=#ffffff;strokeColor=#314354;" parent="IO6hgtRXoiiU4K4g2s5N-65" vertex="1">
          <mxGeometry x="496" y="28" width="150" height="20" as="geometry" />
        </mxCell>
        <mxCell id="WlsqMzOY9wFAaWYgSssA-118" value="ps_organization_prod" style="rounded=1;whiteSpace=wrap;html=1;fillColor=#647687;fontColor=#ffffff;strokeColor=#314354;" parent="IO6hgtRXoiiU4K4g2s5N-65" vertex="1">
          <mxGeometry x="496" y="58" width="150" height="20" as="geometry" />
        </mxCell>
        <mxCell id="WlsqMzOY9wFAaWYgSssA-107" value="DEV Environment" style="swimlane;whiteSpace=wrap;html=1;fillColor=#6d8764;fontColor=#ffffff;strokeColor=#3A5431;" parent="IO6hgtRXoiiU4K4g2s5N-65" vertex="1">
          <mxGeometry x="6" y="683" width="200" height="200" as="geometry" />
        </mxCell>
        <mxCell id="WlsqMzOY9wFAaWYgSssA-108" value="&lt;h1&gt;Credentials&lt;/h1&gt;&lt;p&gt;Client ID: 123-456-789&lt;/p&gt;&lt;p&gt;Client Secret: A19d6a8fg7q&lt;/p&gt;" style="text;html=1;strokeColor=none;fillColor=none;spacing=5;spacingTop=-20;whiteSpace=wrap;overflow=hidden;rounded=0;" parent="WlsqMzOY9wFAaWYgSssA-107" vertex="1">
          <mxGeometry x="20" y="30" width="160" height="120" as="geometry" />
        </mxCell>
        <mxCell id="WlsqMzOY9wFAaWYgSssA-106" value="UAT Environment" style="swimlane;whiteSpace=wrap;html=1;fillColor=#6d8764;fontColor=#ffffff;strokeColor=#3A5431;" parent="IO6hgtRXoiiU4K4g2s5N-65" vertex="1">
          <mxGeometry x="216" y="683" width="200" height="200" as="geometry" />
        </mxCell>
        <mxCell id="WlsqMzOY9wFAaWYgSssA-109" value="&lt;h1&gt;Credentials&lt;/h1&gt;&lt;p&gt;Client ID: 123-456-789&lt;/p&gt;&lt;p&gt;Client Secret: A19d6a8fg7q&lt;/p&gt;" style="text;html=1;strokeColor=none;fillColor=none;spacing=5;spacingTop=-20;whiteSpace=wrap;overflow=hidden;rounded=0;" parent="WlsqMzOY9wFAaWYgSssA-106" vertex="1">
          <mxGeometry x="20" y="30" width="160" height="120" as="geometry" />
        </mxCell>
        <mxCell id="WlsqMzOY9wFAaWYgSssA-105" value="PROD Environment" style="swimlane;whiteSpace=wrap;html=1;fillColor=#76608a;fontColor=#ffffff;strokeColor=#432D57;" parent="IO6hgtRXoiiU4K4g2s5N-65" vertex="1">
          <mxGeometry x="436" y="683" width="200" height="200" as="geometry" />
        </mxCell>
        <mxCell id="WlsqMzOY9wFAaWYgSssA-110" value="&lt;h1&gt;Credentials&lt;/h1&gt;&lt;p&gt;Client ID: 123-456-789&lt;/p&gt;&lt;p&gt;Client Secret: A19d6a8fg7q&lt;/p&gt;" style="text;html=1;strokeColor=none;fillColor=none;spacing=5;spacingTop=-20;whiteSpace=wrap;overflow=hidden;rounded=0;" parent="WlsqMzOY9wFAaWYgSssA-105" vertex="1">
          <mxGeometry x="20" y="30" width="160" height="120" as="geometry" />
        </mxCell>
        <mxCell id="WlsqMzOY9wFAaWYgSssA-22" value="Source Control" style="swimlane;whiteSpace=wrap;html=1;fillColor=#0050ef;fontColor=#ffffff;strokeColor=#001DBC;" parent="1" vertex="1">
          <mxGeometry x="13" y="30" width="1250" height="670" as="geometry">
            <mxRectangle x="90" y="550" width="100" height="30" as="alternateBounds" />
          </mxGeometry>
        </mxCell>
        <mxCell id="WlsqMzOY9wFAaWYgSssA-26" value="Organization" style="swimlane;whiteSpace=wrap;html=1;fillColor=#a20025;fontColor=#ffffff;strokeColor=#6F0000;" parent="WlsqMzOY9wFAaWYgSssA-22" vertex="1">
          <mxGeometry x="10" y="30" width="1230" height="630" as="geometry">
            <mxRectangle x="320" y="120" width="110" height="30" as="alternateBounds" />
          </mxGeometry>
        </mxCell>
        <mxCell id="WlsqMzOY9wFAaWYgSssA-27" value="Secrets and Variables" style="swimlane;whiteSpace=wrap;html=1;fillColor=#e3c800;fontColor=#000000;strokeColor=#B09500;" parent="WlsqMzOY9wFAaWYgSssA-26" vertex="1">
          <mxGeometry x="10" y="30" width="450" height="490" as="geometry">
            <mxRectangle x="10" y="30" width="160" height="30" as="alternateBounds" />
          </mxGeometry>
        </mxCell>
        <mxCell id="WlsqMzOY9wFAaWYgSssA-28" value="Secrets" style="swimlane;fontStyle=0;childLayout=stackLayout;horizontal=1;startSize=30;horizontalStack=0;resizeParent=1;resizeParentMax=0;resizeLast=0;collapsible=1;marginBottom=0;whiteSpace=wrap;html=1;fillColor=#f0a30a;fontColor=#000000;strokeColor=#BD7000;" parent="WlsqMzOY9wFAaWYgSssA-27" vertex="1">
          <mxGeometry x="10" y="30" width="220" height="330" as="geometry">
            <mxRectangle x="10" y="30" width="80" height="30" as="alternateBounds" />
          </mxGeometry>
        </mxCell>
        <mxCell id="WlsqMzOY9wFAaWYgSssA-30" value="AP_CICD_ConnectedApp_ClientID" style="text;fillColor=#fff2cc;align=left;verticalAlign=middle;spacingLeft=4;spacingRight=4;overflow=hidden;points=[[0,0.5],[1,0.5]];portConstraint=eastwest;rotatable=0;whiteSpace=wrap;html=1;strokeColor=#d6b656;" parent="WlsqMzOY9wFAaWYgSssA-28" vertex="1">
          <mxGeometry y="30" width="220" height="30" as="geometry" />
        </mxCell>
        <mxCell id="WlsqMzOY9wFAaWYgSssA-31" value="AP_CICD_ConnectedApp_ClientSecret" style="text;strokeColor=#d6b656;fillColor=#fff2cc;align=left;verticalAlign=middle;spacingLeft=4;spacingRight=4;overflow=hidden;points=[[0,0.5],[1,0.5]];portConstraint=eastwest;rotatable=0;whiteSpace=wrap;html=1;" parent="WlsqMzOY9wFAaWYgSssA-28" vertex="1">
          <mxGeometry y="60" width="220" height="30" as="geometry" />
        </mxCell>
        <mxCell id="WlsqMzOY9wFAaWYgSssA-32" value="AP_DEV_ClientID" style="text;strokeColor=#d6b656;fillColor=#fff2cc;align=left;verticalAlign=middle;spacingLeft=4;spacingRight=4;overflow=hidden;points=[[0,0.5],[1,0.5]];portConstraint=eastwest;rotatable=0;whiteSpace=wrap;html=1;" parent="WlsqMzOY9wFAaWYgSssA-28" vertex="1">
          <mxGeometry y="90" width="220" height="30" as="geometry" />
        </mxCell>
        <mxCell id="WlsqMzOY9wFAaWYgSssA-37" value="AP_DEV_ClientSecret" style="text;strokeColor=#d6b656;fillColor=#fff2cc;align=left;verticalAlign=middle;spacingLeft=4;spacingRight=4;overflow=hidden;points=[[0,0.5],[1,0.5]];portConstraint=eastwest;rotatable=0;whiteSpace=wrap;html=1;" parent="WlsqMzOY9wFAaWYgSssA-28" vertex="1">
          <mxGeometry y="120" width="220" height="30" as="geometry" />
        </mxCell>
        <mxCell id="WlsqMzOY9wFAaWYgSssA-33" value="AP_UAT_ClientID" style="text;strokeColor=#d6b656;fillColor=#fff2cc;align=left;verticalAlign=middle;spacingLeft=4;spacingRight=4;overflow=hidden;points=[[0,0.5],[1,0.5]];portConstraint=eastwest;rotatable=0;whiteSpace=wrap;html=1;" parent="WlsqMzOY9wFAaWYgSssA-28" vertex="1">
          <mxGeometry y="150" width="220" height="30" as="geometry" />
        </mxCell>
        <mxCell id="WlsqMzOY9wFAaWYgSssA-36" value="AP_UAT_ClientSecret" style="text;strokeColor=#d6b656;fillColor=#fff2cc;align=left;verticalAlign=middle;spacingLeft=4;spacingRight=4;overflow=hidden;points=[[0,0.5],[1,0.5]];portConstraint=eastwest;rotatable=0;whiteSpace=wrap;html=1;" parent="WlsqMzOY9wFAaWYgSssA-28" vertex="1">
          <mxGeometry y="180" width="220" height="30" as="geometry" />
        </mxCell>
        <mxCell id="WlsqMzOY9wFAaWYgSssA-34" value="AP_PROD_ClientID" style="text;strokeColor=#d6b656;fillColor=#fff2cc;align=left;verticalAlign=middle;spacingLeft=4;spacingRight=4;overflow=hidden;points=[[0,0.5],[1,0.5]];portConstraint=eastwest;rotatable=0;whiteSpace=wrap;html=1;" parent="WlsqMzOY9wFAaWYgSssA-28" vertex="1">
          <mxGeometry y="210" width="220" height="30" as="geometry" />
        </mxCell>
        <mxCell id="WlsqMzOY9wFAaWYgSssA-35" value="AP_PROD_ClientSecret" style="text;strokeColor=#d6b656;fillColor=#fff2cc;align=left;verticalAlign=middle;spacingLeft=4;spacingRight=4;overflow=hidden;points=[[0,0.5],[1,0.5]];portConstraint=eastwest;rotatable=0;whiteSpace=wrap;html=1;" parent="WlsqMzOY9wFAaWYgSssA-28" vertex="1">
          <mxGeometry y="240" width="220" height="30" as="geometry" />
        </mxCell>
        <mxCell id="f1pE22XIs8Pt3IvtdLca-1" value="MuleSoft_EE_Rep_Username" style="text;strokeColor=#d6b656;fillColor=#fff2cc;align=left;verticalAlign=middle;spacingLeft=4;spacingRight=4;overflow=hidden;points=[[0,0.5],[1,0.5]];portConstraint=eastwest;rotatable=0;whiteSpace=wrap;html=1;" parent="WlsqMzOY9wFAaWYgSssA-28" vertex="1">
          <mxGeometry y="270" width="220" height="30" as="geometry" />
        </mxCell>
        <mxCell id="f1pE22XIs8Pt3IvtdLca-2" value="MuleSoft_EE_Rep_Password" style="text;strokeColor=#d6b656;fillColor=#fff2cc;align=left;verticalAlign=middle;spacingLeft=4;spacingRight=4;overflow=hidden;points=[[0,0.5],[1,0.5]];portConstraint=eastwest;rotatable=0;whiteSpace=wrap;html=1;" parent="WlsqMzOY9wFAaWYgSssA-28" vertex="1">
          <mxGeometry y="300" width="220" height="30" as="geometry" />
        </mxCell>
        <mxCell id="WlsqMzOY9wFAaWYgSssA-52" value="Variables" style="swimlane;fontStyle=0;childLayout=stackLayout;horizontal=1;startSize=30;horizontalStack=0;resizeParent=1;resizeParentMax=0;resizeLast=0;collapsible=1;marginBottom=0;whiteSpace=wrap;html=1;fillColor=#fa6800;fontColor=#000000;strokeColor=#C73500;" parent="WlsqMzOY9wFAaWYgSssA-27" vertex="1">
          <mxGeometry x="250" y="30" width="197" height="210" as="geometry" />
        </mxCell>
        <mxCell id="aUiAGBgos244SG1FmjgU-1" value="AP_Organization_ID" style="text;strokeColor=#d79b00;fillColor=#ffe6cc;align=left;verticalAlign=middle;spacingLeft=4;spacingRight=4;overflow=hidden;points=[[0,0.5],[1,0.5]];portConstraint=eastwest;rotatable=0;whiteSpace=wrap;html=1;" parent="WlsqMzOY9wFAaWYgSssA-52" vertex="1">
          <mxGeometry y="30" width="197" height="30" as="geometry" />
        </mxCell>
        <mxCell id="WlsqMzOY9wFAaWYgSssA-53" value="AP_PrivateSpace_Sandbox_Name" style="text;strokeColor=#d79b00;fillColor=#ffe6cc;align=left;verticalAlign=middle;spacingLeft=4;spacingRight=4;overflow=hidden;points=[[0,0.5],[1,0.5]];portConstraint=eastwest;rotatable=0;whiteSpace=wrap;html=1;" parent="WlsqMzOY9wFAaWYgSssA-52" vertex="1">
          <mxGeometry y="60" width="197" height="30" as="geometry" />
        </mxCell>
        <mxCell id="WlsqMzOY9wFAaWYgSssA-54" value="AP_PrivateSpace_Prod_Name" style="text;strokeColor=#d79b00;fillColor=#ffe6cc;align=left;verticalAlign=middle;spacingLeft=4;spacingRight=4;overflow=hidden;points=[[0,0.5],[1,0.5]];portConstraint=eastwest;rotatable=0;whiteSpace=wrap;html=1;" parent="WlsqMzOY9wFAaWYgSssA-52" vertex="1">
          <mxGeometry y="90" width="197" height="30" as="geometry" />
        </mxCell>
        <mxCell id="eAUUorB9yZXVc0QDvwAi-1" value="AP_DEV_Application_Name_Suffix" style="text;strokeColor=#d79b00;fillColor=#ffe6cc;align=left;verticalAlign=middle;spacingLeft=4;spacingRight=4;overflow=hidden;points=[[0,0.5],[1,0.5]];portConstraint=eastwest;rotatable=0;whiteSpace=wrap;html=1;" parent="WlsqMzOY9wFAaWYgSssA-52" vertex="1">
          <mxGeometry y="120" width="197" height="30" as="geometry" />
        </mxCell>
        <mxCell id="eAUUorB9yZXVc0QDvwAi-3" value="AP_UAT_Application_Name_Suffix" style="text;strokeColor=#d79b00;fillColor=#ffe6cc;align=left;verticalAlign=middle;spacingLeft=4;spacingRight=4;overflow=hidden;points=[[0,0.5],[1,0.5]];portConstraint=eastwest;rotatable=0;whiteSpace=wrap;html=1;" parent="WlsqMzOY9wFAaWYgSssA-52" vertex="1">
          <mxGeometry y="150" width="197" height="30" as="geometry" />
        </mxCell>
        <mxCell id="eAUUorB9yZXVc0QDvwAi-2" value="AP_Prod_Application_Name_Suffix" style="text;strokeColor=#d79b00;fillColor=#ffe6cc;align=left;verticalAlign=middle;spacingLeft=4;spacingRight=4;overflow=hidden;points=[[0,0.5],[1,0.5]];portConstraint=eastwest;rotatable=0;whiteSpace=wrap;html=1;" parent="WlsqMzOY9wFAaWYgSssA-52" vertex="1">
          <mxGeometry y="180" width="197" height="30" as="geometry" />
        </mxCell>
        <mxCell id="WlsqMzOY9wFAaWYgSssA-39" value="Repository" style="swimlane;whiteSpace=wrap;html=1;fillColor=#647687;fontColor=#ffffff;strokeColor=#314354;" parent="WlsqMzOY9wFAaWYgSssA-26" vertex="1">
          <mxGeometry x="480" y="30" width="730" height="580" as="geometry">
            <mxRectangle x="480" y="30" width="150" height="30" as="alternateBounds" />
          </mxGeometry>
        </mxCell>
        <mxCell id="IO6hgtRXoiiU4K4g2s5N-36" style="edgeStyle=orthogonalEdgeStyle;rounded=0;orthogonalLoop=1;jettySize=auto;html=1;entryX=1;entryY=0.5;entryDx=0;entryDy=0;jumpStyle=arc;exitX=1;exitY=0.5;exitDx=0;exitDy=0;" parent="WlsqMzOY9wFAaWYgSssA-39" source="IO6hgtRXoiiU4K4g2s5N-13" target="hSwmIFWzSkDaHYj3NJwP-2" edge="1">
          <mxGeometry relative="1" as="geometry">
            <Array as="points">
              <mxPoint x="590" y="115" />
              <mxPoint x="590" y="190" />
              <mxPoint x="390" y="190" />
              <mxPoint x="390" y="375" />
            </Array>
          </mxGeometry>
        </mxCell>
        <mxCell id="hSwmIFWzSkDaHYj3NJwP-1" value="Environments" style="swimlane;fontStyle=0;childLayout=stackLayout;horizontal=1;startSize=30;horizontalStack=0;resizeParent=1;resizeParentMax=0;resizeLast=0;collapsible=1;marginBottom=0;whiteSpace=wrap;html=1;fillColor=#647687;fontColor=#ffffff;strokeColor=#314354;" parent="WlsqMzOY9wFAaWYgSssA-39" vertex="1">
          <mxGeometry x="150" y="330" width="100" height="120" as="geometry" />
        </mxCell>
        <mxCell id="hSwmIFWzSkDaHYj3NJwP-2" value="Dev" style="text;strokeColor=#82b366;fillColor=#d5e8d4;align=left;verticalAlign=middle;spacingLeft=4;spacingRight=4;overflow=hidden;points=[[0,0.5],[1,0.5]];portConstraint=eastwest;rotatable=0;whiteSpace=wrap;html=1;" parent="hSwmIFWzSkDaHYj3NJwP-1" vertex="1">
          <mxGeometry y="30" width="100" height="30" as="geometry" />
        </mxCell>
        <mxCell id="hSwmIFWzSkDaHYj3NJwP-3" value="UAT" style="text;strokeColor=#82b366;fillColor=#d5e8d4;align=left;verticalAlign=middle;spacingLeft=4;spacingRight=4;overflow=hidden;points=[[0,0.5],[1,0.5]];portConstraint=eastwest;rotatable=0;whiteSpace=wrap;html=1;" parent="hSwmIFWzSkDaHYj3NJwP-1" vertex="1">
          <mxGeometry y="60" width="100" height="30" as="geometry" />
        </mxCell>
        <mxCell id="hSwmIFWzSkDaHYj3NJwP-4" value="&lt;font&gt;Prod&lt;/font&gt;" style="text;strokeColor=#9673a6;fillColor=#e1d5e7;align=left;verticalAlign=middle;spacingLeft=4;spacingRight=4;overflow=hidden;points=[[0,0.5],[1,0.5]];portConstraint=eastwest;rotatable=0;whiteSpace=wrap;html=1;" parent="hSwmIFWzSkDaHYj3NJwP-1" vertex="1">
          <mxGeometry y="90" width="100" height="30" as="geometry" />
        </mxCell>
        <mxCell id="IO6hgtRXoiiU4K4g2s5N-4" value="" style="image;sketch=0;aspect=fixed;html=1;points=[];align=center;fontSize=12;image=img/lib/mscae/Person.svg;" parent="WlsqMzOY9wFAaWYgSssA-39" vertex="1">
          <mxGeometry x="245.8900000000002" y="303" width="10.36" height="14" as="geometry" />
        </mxCell>
        <mxCell id="IO6hgtRXoiiU4K4g2s5N-5" value="Workflows" style="swimlane;fontStyle=0;childLayout=stackLayout;horizontal=1;startSize=30;horizontalStack=0;resizeParent=1;resizeParentMax=0;resizeLast=0;collapsible=1;marginBottom=0;whiteSpace=wrap;html=1;fillColor=#1ba1e2;fontColor=#ffffff;strokeColor=#006EAF;" parent="WlsqMzOY9wFAaWYgSssA-39" vertex="1">
          <mxGeometry x="120" y="30" width="162.54" height="200" as="geometry" />
        </mxCell>
        <mxCell id="IO6hgtRXoiiU4K4g2s5N-6" value="Triggered by" style="edgeStyle=orthogonalEdgeStyle;rounded=0;orthogonalLoop=1;jettySize=auto;html=1;" parent="IO6hgtRXoiiU4K4g2s5N-5" source="IO6hgtRXoiiU4K4g2s5N-7" edge="1">
          <mxGeometry relative="1" as="geometry">
            <mxPoint x="279.99999999999994" y="45" as="targetPoint" />
          </mxGeometry>
        </mxCell>
        <mxCell id="IO6hgtRXoiiU4K4g2s5N-7" value="unit_test-compile.yml" style="text;strokeColor=#2D7600;fillColor=#60a917;align=left;verticalAlign=middle;spacingLeft=4;spacingRight=4;overflow=hidden;points=[[0,0.5],[1,0.5]];portConstraint=eastwest;rotatable=0;whiteSpace=wrap;html=1;fontColor=#ffffff;" parent="IO6hgtRXoiiU4K4g2s5N-5" vertex="1">
          <mxGeometry y="30" width="162.54" height="30" as="geometry" />
        </mxCell>
        <mxCell id="IO6hgtRXoiiU4K4g2s5N-8" value="package-deploy_exchange-deploy_ch_dev.yml" style="text;strokeColor=#005700;fillColor=#008a00;align=left;verticalAlign=middle;spacingLeft=4;spacingRight=4;overflow=hidden;points=[[0,0.5],[1,0.5]];portConstraint=eastwest;rotatable=0;whiteSpace=wrap;html=1;fontColor=#ffffff;" parent="IO6hgtRXoiiU4K4g2s5N-5" vertex="1">
          <mxGeometry y="60" width="162.54" height="50" as="geometry" />
        </mxCell>
        <mxCell id="IO6hgtRXoiiU4K4g2s5N-9" value="maven-release-prepare.yml" style="text;strokeColor=#2D7600;fillColor=#60a917;align=left;verticalAlign=middle;spacingLeft=4;spacingRight=4;overflow=hidden;points=[[0,0.5],[1,0.5]];portConstraint=eastwest;rotatable=0;whiteSpace=wrap;html=1;fontColor=#ffffff;" parent="IO6hgtRXoiiU4K4g2s5N-5" vertex="1">
          <mxGeometry y="110" width="162.54" height="30" as="geometry" />
        </mxCell>
        <mxCell id="IO6hgtRXoiiU4K4g2s5N-10" value="package-deploy_exchange-deploy_ch_prod.yml" style="text;strokeColor=#005700;fillColor=#008a00;align=left;verticalAlign=middle;spacingLeft=4;spacingRight=4;overflow=hidden;points=[[0,0.5],[1,0.5]];portConstraint=eastwest;rotatable=0;whiteSpace=wrap;html=1;fontColor=#ffffff;" parent="IO6hgtRXoiiU4K4g2s5N-5" vertex="1">
          <mxGeometry y="140" width="162.54" height="30" as="geometry" />
        </mxCell>
        <mxCell id="IO6hgtRXoiiU4K4g2s5N-11" value="unit_test-package-deploy_ch_any.yml" style="text;strokeColor=#2D7600;fillColor=#60a917;align=left;verticalAlign=middle;spacingLeft=4;spacingRight=4;overflow=hidden;points=[[0,0.5],[1,0.5]];portConstraint=eastwest;rotatable=0;whiteSpace=wrap;html=1;fontColor=#ffffff;" parent="IO6hgtRXoiiU4K4g2s5N-5" vertex="1">
          <mxGeometry y="170" width="162.54" height="30" as="geometry" />
        </mxCell>
        <mxCell id="IO6hgtRXoiiU4K4g2s5N-12" value="- PR raised to develop branch&lt;br&gt;- PR raised to main branch" style="rounded=1;whiteSpace=wrap;html=1;" parent="WlsqMzOY9wFAaWYgSssA-39" vertex="1">
          <mxGeometry x="400" y="61" width="170" height="27" as="geometry" />
        </mxCell>
        <mxCell id="IO6hgtRXoiiU4K4g2s5N-13" value="- PR to develop is closed and merged" style="rounded=1;whiteSpace=wrap;html=1;" parent="WlsqMzOY9wFAaWYgSssA-39" vertex="1">
          <mxGeometry x="399.53999999999996" y="100" width="170" height="30" as="geometry" />
        </mxCell>
        <mxCell id="IO6hgtRXoiiU4K4g2s5N-15" value="" style="image;points=[];aspect=fixed;html=1;align=center;shadow=0;dashed=0;image=img/lib/allied_telesis/computer_and_terminals/Server_Desktop.svg;" parent="WlsqMzOY9wFAaWYgSssA-39" vertex="1">
          <mxGeometry x="290" y="63" width="15.78" height="20" as="geometry" />
        </mxCell>
        <mxCell id="IO6hgtRXoiiU4K4g2s5N-21" value="Triggered by" style="edgeStyle=orthogonalEdgeStyle;rounded=0;orthogonalLoop=1;jettySize=auto;html=1;" parent="WlsqMzOY9wFAaWYgSssA-39" edge="1">
          <mxGeometry relative="1" as="geometry">
            <mxPoint x="399.53999999999996" y="155" as="targetPoint" />
            <mxPoint x="282.53999999999996" y="155" as="sourcePoint" />
          </mxGeometry>
        </mxCell>
        <mxCell id="IO6hgtRXoiiU4K4g2s5N-22" value="- PR to main is closed and merged" style="rounded=1;whiteSpace=wrap;html=1;" parent="WlsqMzOY9wFAaWYgSssA-39" vertex="1">
          <mxGeometry x="399.53999999999996" y="138" width="170" height="30" as="geometry" />
        </mxCell>
        <mxCell id="IO6hgtRXoiiU4K4g2s5N-23" value="" style="image;points=[];aspect=fixed;html=1;align=center;shadow=0;dashed=0;image=img/lib/allied_telesis/computer_and_terminals/Server_Desktop.svg;" parent="WlsqMzOY9wFAaWYgSssA-39" vertex="1">
          <mxGeometry x="290" y="143" width="15.78" height="20" as="geometry" />
        </mxCell>
        <mxCell id="IO6hgtRXoiiU4K4g2s5N-24" value="Triggered by" style="edgeStyle=orthogonalEdgeStyle;rounded=0;orthogonalLoop=1;jettySize=auto;html=1;entryX=-0.009;entryY=0.49;entryDx=0;entryDy=0;entryPerimeter=0;" parent="WlsqMzOY9wFAaWYgSssA-39" source="IO6hgtRXoiiU4K4g2s5N-8" target="IO6hgtRXoiiU4K4g2s5N-13" edge="1">
          <mxGeometry relative="1" as="geometry">
            <mxPoint x="370" y="115" as="targetPoint" />
          </mxGeometry>
        </mxCell>
        <mxCell id="IO6hgtRXoiiU4K4g2s5N-25" value="" style="image;points=[];aspect=fixed;html=1;align=center;shadow=0;dashed=0;image=img/lib/allied_telesis/computer_and_terminals/Server_Desktop.svg;" parent="WlsqMzOY9wFAaWYgSssA-39" vertex="1">
          <mxGeometry x="290" y="105" width="15.78" height="20" as="geometry" />
        </mxCell>
        <mxCell id="IO6hgtRXoiiU4K4g2s5N-30" style="edgeStyle=orthogonalEdgeStyle;rounded=0;orthogonalLoop=1;jettySize=auto;html=1;entryX=1;entryY=0.5;entryDx=0;entryDy=0;exitX=0.213;exitY=0.975;exitDx=0;exitDy=0;exitPerimeter=0;jumpStyle=arc;" parent="WlsqMzOY9wFAaWYgSssA-39" target="hSwmIFWzSkDaHYj3NJwP-3" edge="1">
          <mxGeometry relative="1" as="geometry">
            <mxPoint x="206.8499999999999" y="276" as="targetPoint" />
            <mxPoint x="206.8499999999999" y="230" as="sourcePoint" />
            <Array as="points">
              <mxPoint x="207" y="260" />
              <mxPoint x="300" y="260" />
              <mxPoint x="300" y="405" />
            </Array>
          </mxGeometry>
        </mxCell>
        <mxCell id="IO6hgtRXoiiU4K4g2s5N-31" style="edgeStyle=orthogonalEdgeStyle;rounded=0;orthogonalLoop=1;jettySize=auto;html=1;entryX=1;entryY=0.5;entryDx=0;entryDy=0;exitX=0.213;exitY=0.975;exitDx=0;exitDy=0;exitPerimeter=0;jumpStyle=arc;" parent="WlsqMzOY9wFAaWYgSssA-39" target="hSwmIFWzSkDaHYj3NJwP-4" edge="1">
          <mxGeometry relative="1" as="geometry">
            <mxPoint x="251.91000000000008" y="276" as="targetPoint" />
            <mxPoint x="251.91000000000008" y="230" as="sourcePoint" />
            <Array as="points">
              <mxPoint x="252" y="240" />
              <mxPoint x="320" y="240" />
              <mxPoint x="320" y="435" />
            </Array>
          </mxGeometry>
        </mxCell>
        <mxCell id="IO6hgtRXoiiU4K4g2s5N-34" style="edgeStyle=orthogonalEdgeStyle;rounded=0;orthogonalLoop=1;jettySize=auto;html=1;entryX=1;entryY=0.5;entryDx=0;entryDy=0;exitX=0.997;exitY=0.64;exitDx=0;exitDy=0;exitPerimeter=0;jumpStyle=arc;" parent="WlsqMzOY9wFAaWYgSssA-39" source="IO6hgtRXoiiU4K4g2s5N-10" target="hSwmIFWzSkDaHYj3NJwP-4" edge="1">
          <mxGeometry relative="1" as="geometry">
            <mxPoint x="126" y="550" as="targetPoint" />
            <mxPoint x="261.9100000000001" y="240" as="sourcePoint" />
            <Array as="points">
              <mxPoint x="290" y="189" />
              <mxPoint x="340" y="190" />
              <mxPoint x="340" y="435" />
            </Array>
          </mxGeometry>
        </mxCell>
        <mxCell id="IO6hgtRXoiiU4K4g2s5N-26" style="edgeStyle=orthogonalEdgeStyle;rounded=0;orthogonalLoop=1;jettySize=auto;html=1;entryX=1;entryY=0.5;entryDx=0;entryDy=0;exitX=0.293;exitY=1.044;exitDx=0;exitDy=0;exitPerimeter=0;jumpStyle=none;" parent="WlsqMzOY9wFAaWYgSssA-39" source="IO6hgtRXoiiU4K4g2s5N-11" target="hSwmIFWzSkDaHYj3NJwP-2" edge="1">
          <mxGeometry relative="1" as="geometry">
            <mxPoint x="320" y="213" as="targetPoint" />
            <Array as="points">
              <mxPoint x="168" y="290" />
              <mxPoint x="280" y="290" />
              <mxPoint x="280" y="375" />
            </Array>
          </mxGeometry>
        </mxCell>
        <mxCell id="5-OAXvshyF9yfbuMHgJZ-1" value="Branches" style="swimlane;fontStyle=0;childLayout=stackLayout;horizontal=1;startSize=30;horizontalStack=0;resizeParent=1;resizeParentMax=0;resizeLast=0;collapsible=1;marginBottom=0;whiteSpace=wrap;html=1;fillColor=#647687;fontColor=#ffffff;strokeColor=#314354;" parent="WlsqMzOY9wFAaWYgSssA-39" vertex="1">
          <mxGeometry x="9" y="40" width="100" height="150" as="geometry" />
        </mxCell>
        <mxCell id="5-OAXvshyF9yfbuMHgJZ-2" value="hotfix/1234" style="text;strokeColor=#666666;fillColor=#f5f5f5;align=left;verticalAlign=middle;spacingLeft=4;spacingRight=4;overflow=hidden;points=[[0,0.5],[1,0.5]];portConstraint=eastwest;rotatable=0;whiteSpace=wrap;html=1;fontColor=#333333;" parent="5-OAXvshyF9yfbuMHgJZ-1" vertex="1">
          <mxGeometry y="30" width="100" height="30" as="geometry" />
        </mxCell>
        <mxCell id="5-OAXvshyF9yfbuMHgJZ-3" value="main" style="text;strokeColor=#666666;fillColor=#f5f5f5;align=left;verticalAlign=middle;spacingLeft=4;spacingRight=4;overflow=hidden;points=[[0,0.5],[1,0.5]];portConstraint=eastwest;rotatable=0;whiteSpace=wrap;html=1;fontColor=#333333;" parent="5-OAXvshyF9yfbuMHgJZ-1" vertex="1">
          <mxGeometry y="60" width="100" height="30" as="geometry" />
        </mxCell>
        <mxCell id="5-OAXvshyF9yfbuMHgJZ-4" value="&lt;font&gt;develop&lt;/font&gt;" style="text;strokeColor=#666666;fillColor=#f5f5f5;align=left;verticalAlign=middle;spacingLeft=4;spacingRight=4;overflow=hidden;points=[[0,0.5],[1,0.5]];portConstraint=eastwest;rotatable=0;whiteSpace=wrap;html=1;fontColor=#333333;" parent="5-OAXvshyF9yfbuMHgJZ-1" vertex="1">
          <mxGeometry y="90" width="100" height="30" as="geometry" />
        </mxCell>
        <mxCell id="5-OAXvshyF9yfbuMHgJZ-5" value="feature/xyz" style="text;strokeColor=#666666;fillColor=#f5f5f5;align=left;verticalAlign=middle;spacingLeft=4;spacingRight=4;overflow=hidden;points=[[0,0.5],[1,0.5]];portConstraint=eastwest;rotatable=0;whiteSpace=wrap;html=1;fontColor=#333333;" parent="5-OAXvshyF9yfbuMHgJZ-1" vertex="1">
          <mxGeometry y="120" width="100" height="30" as="geometry" />
        </mxCell>
        <mxCell id="IO6hgtRXoiiU4K4g2s5N-33" value="Manual trigger" style="rounded=1;whiteSpace=wrap;html=1;" parent="WlsqMzOY9wFAaWYgSssA-39" vertex="1">
          <mxGeometry x="259.89" y="300" width="90" height="20" as="geometry" />
        </mxCell>
        <mxCell id="WlsqMzOY9wFAaWYgSssA-40" value="Secrets and Variables" style="swimlane;whiteSpace=wrap;html=1;fillColor=#e3c800;fontColor=#000000;strokeColor=#B09500;" parent="WlsqMzOY9wFAaWYgSssA-39" vertex="1">
          <mxGeometry x="420" y="210" width="310" height="220" as="geometry">
            <mxRectangle x="150" y="310" width="160" height="30" as="alternateBounds" />
          </mxGeometry>
        </mxCell>
        <mxCell id="WlsqMzOY9wFAaWYgSssA-47" value="Secrets" style="swimlane;fontStyle=0;childLayout=stackLayout;horizontal=1;startSize=30;horizontalStack=0;resizeParent=1;resizeParentMax=0;resizeLast=0;collapsible=1;marginBottom=0;whiteSpace=wrap;html=1;fillColor=#f0a30a;fontColor=#000000;strokeColor=#BD7000;" parent="WlsqMzOY9wFAaWYgSssA-40" vertex="1">
          <mxGeometry x="10" y="30" width="140" height="120" as="geometry" />
        </mxCell>
        <mxCell id="WlsqMzOY9wFAaWYgSssA-48" value="Encryption_Key" style="text;strokeColor=#d6b656;fillColor=#fff2cc;align=left;verticalAlign=middle;spacingLeft=4;spacingRight=4;overflow=hidden;points=[[0,0.5],[1,0.5]];portConstraint=eastwest;rotatable=0;whiteSpace=wrap;html=1;" parent="WlsqMzOY9wFAaWYgSssA-47" vertex="1">
          <mxGeometry y="30" width="140" height="30" as="geometry" />
        </mxCell>
        <mxCell id="WlsqMzOY9wFAaWYgSssA-90" value="Custom_Secret_1" style="text;strokeColor=#d6b656;fillColor=#fff2cc;align=left;verticalAlign=middle;spacingLeft=4;spacingRight=4;overflow=hidden;points=[[0,0.5],[1,0.5]];portConstraint=eastwest;rotatable=0;whiteSpace=wrap;html=1;" parent="WlsqMzOY9wFAaWYgSssA-47" vertex="1">
          <mxGeometry y="60" width="140" height="30" as="geometry" />
        </mxCell>
        <mxCell id="WlsqMzOY9wFAaWYgSssA-91" value="&lt;font&gt;Custom_Secret_2&lt;/font&gt;" style="text;strokeColor=#d6b656;fillColor=#fff2cc;align=left;verticalAlign=middle;spacingLeft=4;spacingRight=4;overflow=hidden;points=[[0,0.5],[1,0.5]];portConstraint=eastwest;rotatable=0;whiteSpace=wrap;html=1;fontColor=default;" parent="WlsqMzOY9wFAaWYgSssA-47" vertex="1">
          <mxGeometry y="90" width="140" height="30" as="geometry" />
        </mxCell>
        <mxCell id="WlsqMzOY9wFAaWYgSssA-56" value="Variables" style="swimlane;fontStyle=0;childLayout=stackLayout;horizontal=1;startSize=30;horizontalStack=0;resizeParent=1;resizeParentMax=0;resizeLast=0;collapsible=1;marginBottom=0;whiteSpace=wrap;html=1;fillColor=#fa6800;fontColor=#000000;strokeColor=#C73500;" parent="WlsqMzOY9wFAaWYgSssA-40" vertex="1">
          <mxGeometry x="160" y="30" width="140" height="150" as="geometry" />
        </mxCell>
        <mxCell id="hSwmIFWzSkDaHYj3NJwP-5" value="Custom_Variable_1" style="text;strokeColor=#d79b00;fillColor=#ffe6cc;align=left;verticalAlign=middle;spacingLeft=4;spacingRight=4;overflow=hidden;points=[[0,0.5],[1,0.5]];portConstraint=eastwest;rotatable=0;whiteSpace=wrap;html=1;" parent="WlsqMzOY9wFAaWYgSssA-56" vertex="1">
          <mxGeometry y="30" width="140" height="30" as="geometry" />
        </mxCell>
        <mxCell id="WlsqMzOY9wFAaWYgSssA-58" value="AP_replicas" style="text;strokeColor=#d79b00;fillColor=#ffe6cc;align=left;verticalAlign=middle;spacingLeft=4;spacingRight=4;overflow=hidden;points=[[0,0.5],[1,0.5]];portConstraint=eastwest;rotatable=0;whiteSpace=wrap;html=1;" parent="WlsqMzOY9wFAaWYgSssA-56" vertex="1">
          <mxGeometry y="60" width="140" height="30" as="geometry" />
        </mxCell>
        <mxCell id="WlsqMzOY9wFAaWYgSssA-59" value="&lt;font&gt;AP_vcores&lt;/font&gt;" style="text;strokeColor=#d79b00;fillColor=#ffe6cc;align=left;verticalAlign=middle;spacingLeft=4;spacingRight=4;overflow=hidden;points=[[0,0.5],[1,0.5]];portConstraint=eastwest;rotatable=0;whiteSpace=wrap;html=1;fontColor=default;" parent="WlsqMzOY9wFAaWYgSssA-56" vertex="1">
          <mxGeometry y="90" width="140" height="30" as="geometry" />
        </mxCell>
        <mxCell id="WlsqMzOY9wFAaWYgSssA-57" value="AP_Application_Name" style="text;strokeColor=#d79b00;fillColor=#ffe6cc;align=left;verticalAlign=middle;spacingLeft=4;spacingRight=4;overflow=hidden;points=[[0,0.5],[1,0.5]];portConstraint=eastwest;rotatable=0;whiteSpace=wrap;html=1;" parent="WlsqMzOY9wFAaWYgSssA-56" vertex="1">
          <mxGeometry y="120" width="140" height="30" as="geometry" />
        </mxCell>
        <mxCell id="WlsqMzOY9wFAaWYgSssA-100" value="" style="curved=1;endArrow=classic;html=1;rounded=0;exitX=0.442;exitY=1.075;exitDx=0;exitDy=0;entryX=0;entryY=0.5;entryDx=0;entryDy=0;exitPerimeter=0;" parent="1" source="WlsqMzOY9wFAaWYgSssA-21" target="aUiAGBgos244SG1FmjgU-1" edge="1">
          <mxGeometry width="50" height="50" relative="1" as="geometry">
            <mxPoint x="-57" y="450" as="sourcePoint" />
            <mxPoint x="-7" y="400" as="targetPoint" />
            <Array as="points">
              <mxPoint x="-420" y="150" />
              <mxPoint x="-230" y="150" />
              <mxPoint x="-120" y="150" />
              <mxPoint x="30" y="160" />
              <mxPoint x="90" y="120" />
              <mxPoint x="250" y="120" />
              <mxPoint x="280" y="150" />
              <mxPoint x="260" y="165" />
            </Array>
          </mxGeometry>
        </mxCell>
        <mxCell id="WlsqMzOY9wFAaWYgSssA-103" value="" style="curved=1;endArrow=classic;html=1;rounded=0;exitX=1;exitY=0.5;exitDx=0;exitDy=0;entryX=0;entryY=0.5;entryDx=0;entryDy=0;" parent="1" source="WlsqMzOY9wFAaWYgSssA-101" target="WlsqMzOY9wFAaWYgSssA-30" edge="1">
          <mxGeometry width="50" height="50" relative="1" as="geometry">
            <mxPoint x="-57" y="450" as="sourcePoint" />
            <mxPoint x="-7" y="400" as="targetPoint" />
            <Array as="points">
              <mxPoint x="-547" y="150" />
              <mxPoint x="-487" y="290" />
              <mxPoint x="-137" y="310" />
            </Array>
          </mxGeometry>
        </mxCell>
        <mxCell id="WlsqMzOY9wFAaWYgSssA-104" value="" style="curved=1;endArrow=classic;html=1;rounded=0;exitX=1;exitY=0.75;exitDx=0;exitDy=0;entryX=0;entryY=0.5;entryDx=0;entryDy=0;" parent="1" source="WlsqMzOY9wFAaWYgSssA-101" target="WlsqMzOY9wFAaWYgSssA-31" edge="1">
          <mxGeometry width="50" height="50" relative="1" as="geometry">
            <mxPoint x="-57" y="450" as="sourcePoint" />
            <mxPoint x="-7" y="400" as="targetPoint" />
            <Array as="points">
              <mxPoint x="-567" y="180" />
              <mxPoint x="-487" y="290" />
              <mxPoint x="-327" y="320" />
              <mxPoint x="-167" y="320" />
            </Array>
          </mxGeometry>
        </mxCell>
        <mxCell id="WlsqMzOY9wFAaWYgSssA-111" value="" style="curved=1;endArrow=classic;html=1;rounded=0;exitX=1;exitY=0.5;exitDx=0;exitDy=0;entryX=0;entryY=0.5;entryDx=0;entryDy=0;" parent="1" source="WlsqMzOY9wFAaWYgSssA-108" target="WlsqMzOY9wFAaWYgSssA-32" edge="1">
          <mxGeometry width="50" height="50" relative="1" as="geometry">
            <mxPoint x="-57" y="450" as="sourcePoint" />
            <mxPoint x="-7" y="400" as="targetPoint" />
            <Array as="points">
              <mxPoint x="-657" y="650" />
              <mxPoint x="-297" y="340" />
            </Array>
          </mxGeometry>
        </mxCell>
        <mxCell id="WlsqMzOY9wFAaWYgSssA-112" value="" style="curved=1;endArrow=classic;html=1;rounded=0;exitX=1;exitY=0.75;exitDx=0;exitDy=0;entryX=0;entryY=0.5;entryDx=0;entryDy=0;" parent="1" source="WlsqMzOY9wFAaWYgSssA-108" target="WlsqMzOY9wFAaWYgSssA-37" edge="1">
          <mxGeometry width="50" height="50" relative="1" as="geometry">
            <mxPoint x="-57" y="450" as="sourcePoint" />
            <mxPoint x="-7" y="400" as="targetPoint" />
            <Array as="points">
              <mxPoint x="-607" y="690" />
              <mxPoint x="-477" y="500" />
              <mxPoint x="-167" y="340" />
            </Array>
          </mxGeometry>
        </mxCell>
        <mxCell id="WlsqMzOY9wFAaWYgSssA-115" value="" style="curved=1;endArrow=classic;html=1;rounded=0;exitX=1;exitY=0.5;exitDx=0;exitDy=0;entryX=0;entryY=0.5;entryDx=0;entryDy=0;" parent="1" target="WlsqMzOY9wFAaWYgSssA-34" edge="1">
          <mxGeometry width="50" height="50" relative="1" as="geometry">
            <mxPoint x="-207" y="820" as="sourcePoint" />
            <mxPoint x="263" y="320" as="targetPoint" />
            <Array as="points">
              <mxPoint x="-227" y="650" />
              <mxPoint x="-127" y="420" />
            </Array>
          </mxGeometry>
        </mxCell>
        <mxCell id="WlsqMzOY9wFAaWYgSssA-116" value="" style="curved=1;endArrow=classic;html=1;rounded=0;exitX=1;exitY=0.75;exitDx=0;exitDy=0;entryX=0;entryY=0.5;entryDx=0;entryDy=0;" parent="1" target="WlsqMzOY9wFAaWYgSssA-35" edge="1">
          <mxGeometry width="50" height="50" relative="1" as="geometry">
            <mxPoint x="-207" y="850" as="sourcePoint" />
            <mxPoint x="263" y="350" as="targetPoint" />
            <Array as="points">
              <mxPoint x="-177" y="690" />
              <mxPoint x="-77" y="440" />
            </Array>
          </mxGeometry>
        </mxCell>
        <mxCell id="WlsqMzOY9wFAaWYgSssA-119" value="" style="curved=1;endArrow=classic;html=1;rounded=0;exitX=1;exitY=0.5;exitDx=0;exitDy=0;entryX=1;entryY=0.5;entryDx=0;entryDy=0;" parent="1" source="WlsqMzOY9wFAaWYgSssA-117" target="WlsqMzOY9wFAaWYgSssA-53" edge="1">
          <mxGeometry width="50" height="50" relative="1" as="geometry">
            <mxPoint x="23" y="540" as="sourcePoint" />
            <mxPoint x="73" y="490" as="targetPoint" />
            <Array as="points">
              <mxPoint x="-27" />
              <mxPoint x="513" y="20" />
            </Array>
          </mxGeometry>
        </mxCell>
        <mxCell id="WlsqMzOY9wFAaWYgSssA-120" value="" style="curved=1;endArrow=classic;html=1;rounded=0;exitX=1;exitY=0.5;exitDx=0;exitDy=0;entryX=1;entryY=0.5;entryDx=0;entryDy=0;" parent="1" source="WlsqMzOY9wFAaWYgSssA-118" target="WlsqMzOY9wFAaWYgSssA-54" edge="1">
          <mxGeometry width="50" height="50" relative="1" as="geometry">
            <mxPoint x="-177" y="70" as="sourcePoint" />
            <mxPoint x="393" y="165" as="targetPoint" />
            <Array as="points">
              <mxPoint x="-27" />
              <mxPoint x="513" y="20" />
            </Array>
          </mxGeometry>
        </mxCell>
        <mxCell id="hSwmIFWzSkDaHYj3NJwP-6" value="" style="curved=1;endArrow=classic;html=1;rounded=0;exitX=0.25;exitY=0;exitDx=0;exitDy=0;entryX=0;entryY=0.5;entryDx=0;entryDy=0;" parent="1" source="WlsqMzOY9wFAaWYgSssA-105" target="hSwmIFWzSkDaHYj3NJwP-4" edge="1">
          <mxGeometry width="50" height="50" relative="1" as="geometry">
            <mxPoint x="-197" y="830" as="sourcePoint" />
            <mxPoint x="53" y="385" as="targetPoint" />
            <Array as="points">
              <mxPoint x="-157" y="600" />
              <mxPoint x="-37" y="850" />
              <mxPoint x="503" y="910" />
              <mxPoint x="483" y="630" />
            </Array>
          </mxGeometry>
        </mxCell>
        <mxCell id="hSwmIFWzSkDaHYj3NJwP-7" value="" style="curved=1;endArrow=classic;html=1;rounded=0;exitX=0.293;exitY=-0.009;exitDx=0;exitDy=0;entryX=0;entryY=0.5;entryDx=0;entryDy=0;exitPerimeter=0;" parent="1" source="WlsqMzOY9wFAaWYgSssA-106" target="hSwmIFWzSkDaHYj3NJwP-3" edge="1">
          <mxGeometry width="50" height="50" relative="1" as="geometry">
            <mxPoint x="-327" y="740" as="sourcePoint" />
            <mxPoint x="533" y="640" as="targetPoint" />
            <Array as="points">
              <mxPoint x="-147" y="610" />
              <mxPoint x="-27" y="860" />
              <mxPoint x="513" y="920" />
              <mxPoint x="483" y="600" />
            </Array>
          </mxGeometry>
        </mxCell>
        <mxCell id="hSwmIFWzSkDaHYj3NJwP-8" value="" style="curved=1;endArrow=classic;html=1;rounded=0;exitX=0.323;exitY=-0.02;exitDx=0;exitDy=0;entryX=0;entryY=0.5;entryDx=0;entryDy=0;exitPerimeter=0;" parent="1" source="WlsqMzOY9wFAaWYgSssA-107" target="hSwmIFWzSkDaHYj3NJwP-2" edge="1">
          <mxGeometry width="50" height="50" relative="1" as="geometry">
            <mxPoint x="-538" y="738" as="sourcePoint" />
            <mxPoint x="533" y="610" as="targetPoint" />
            <Array as="points">
              <mxPoint x="-137" y="620" />
              <mxPoint x="-17" y="870" />
              <mxPoint x="523" y="930" />
              <mxPoint x="483" y="570" />
            </Array>
          </mxGeometry>
        </mxCell>
      </root>
    </mxGraphModel>
  </diagram>
  <diagram name="v2" id="2Os3CwzGABk3YeA4oq8w">
    <mxGraphModel dx="2869" dy="1164" grid="1" gridSize="10" guides="1" tooltips="1" connect="1" arrows="1" fold="1" page="1" pageScale="1" pageWidth="827" pageHeight="1169" math="0" shadow="0">
      <root>
        <mxCell id="6xJFzuWz6Fmpa9PEa_Mx-0" />
        <mxCell id="6xJFzuWz6Fmpa9PEa_Mx-1" parent="6xJFzuWz6Fmpa9PEa_Mx-0" />
        <mxCell id="6xJFzuWz6Fmpa9PEa_Mx-2" value="Anypoint Platform" style="swimlane;whiteSpace=wrap;html=1;" parent="6xJFzuWz6Fmpa9PEa_Mx-1" vertex="1">
          <mxGeometry x="-800" y="20" width="760" height="930" as="geometry">
            <mxRectangle x="10" y="10" width="140" height="30" as="alternateBounds" />
          </mxGeometry>
        </mxCell>
        <mxCell id="6xJFzuWz6Fmpa9PEa_Mx-3" value="CICD_ConnectedApp" style="swimlane;whiteSpace=wrap;html=1;" parent="6xJFzuWz6Fmpa9PEa_Mx-2" vertex="1">
          <mxGeometry x="20" y="40" width="190" height="650" as="geometry">
            <mxRectangle x="20" y="40" width="160" height="30" as="alternateBounds" />
          </mxGeometry>
        </mxCell>
        <mxCell id="6xJFzuWz6Fmpa9PEa_Mx-4" value="&lt;h1&gt;Scopes&lt;/h1&gt;&lt;p&gt;- Design Center&lt;/p&gt;&lt;p&gt;- Design Center Developer&lt;/p&gt;&lt;p&gt;- Exchange&lt;/p&gt;&lt;p&gt;- Exchange Administrator&lt;/p&gt;&lt;p&gt;- Exchange Contributor&lt;/p&gt;&lt;p&gt;- Exchange Creator&lt;/p&gt;&lt;p&gt;- Exchange Viewer&lt;/p&gt;&lt;p&gt;- General&lt;/p&gt;&lt;p&gt;- View Environment&lt;/p&gt;&lt;p&gt;- View wOrganization&lt;/p&gt;&lt;p&gt;- OpenID&lt;/p&gt;&lt;p&gt;- Profile&lt;/p&gt;&lt;p&gt;- Runtime Manager&lt;/p&gt;&lt;p&gt;- Cloudhub Organization Admin&lt;/p&gt;&lt;p&gt;- Create Applications&lt;/p&gt;&lt;p&gt;- Delete Applications&lt;/p&gt;&lt;p&gt;- Read Applications&lt;/p&gt;" style="text;html=1;strokeColor=none;fillColor=none;spacing=5;spacingTop=-20;whiteSpace=wrap;overflow=hidden;rounded=0;" parent="6xJFzuWz6Fmpa9PEa_Mx-3" vertex="1">
          <mxGeometry x="10" y="140" width="160" height="500" as="geometry" />
        </mxCell>
        <mxCell id="6xJFzuWz6Fmpa9PEa_Mx-5" value="&lt;h1&gt;Credentials&lt;/h1&gt;&lt;p&gt;Client ID: 123-456-789&lt;/p&gt;&lt;p&gt;Client Secret: A19d6a8fg7q&lt;/p&gt;" style="text;html=1;strokeColor=none;fillColor=none;spacing=5;spacingTop=-20;whiteSpace=wrap;overflow=hidden;rounded=0;" parent="6xJFzuWz6Fmpa9PEa_Mx-3" vertex="1">
          <mxGeometry x="10" y="30" width="160" height="120" as="geometry" />
        </mxCell>
        <mxCell id="6xJFzuWz6Fmpa9PEa_Mx-6" value="Organization ID" style="rounded=1;whiteSpace=wrap;html=1;" parent="6xJFzuWz6Fmpa9PEa_Mx-2" vertex="1">
          <mxGeometry x="220" y="40" width="120" height="30" as="geometry" />
        </mxCell>
        <mxCell id="6xJFzuWz6Fmpa9PEa_Mx-7" value="API Manager" style="swimlane;whiteSpace=wrap;html=1;" parent="6xJFzuWz6Fmpa9PEa_Mx-2" vertex="1">
          <mxGeometry x="350" y="40" width="140" height="150" as="geometry" />
        </mxCell>
        <mxCell id="6xJFzuWz6Fmpa9PEa_Mx-8" value="API_IDs" style="swimlane;fontStyle=0;childLayout=stackLayout;horizontal=1;startSize=30;horizontalStack=0;resizeParent=1;resizeParentMax=0;resizeLast=0;collapsible=1;marginBottom=0;whiteSpace=wrap;html=1;" parent="6xJFzuWz6Fmpa9PEa_Mx-7" vertex="1">
          <mxGeometry y="25" width="140" height="120" as="geometry" />
        </mxCell>
        <mxCell id="6xJFzuWz6Fmpa9PEa_Mx-9" value="ApplicationName1=1234" style="text;strokeColor=none;fillColor=none;align=left;verticalAlign=middle;spacingLeft=4;spacingRight=4;overflow=hidden;points=[[0,0.5],[1,0.5]];portConstraint=eastwest;rotatable=0;whiteSpace=wrap;html=1;" parent="6xJFzuWz6Fmpa9PEa_Mx-8" vertex="1">
          <mxGeometry y="30" width="140" height="30" as="geometry" />
        </mxCell>
        <mxCell id="6xJFzuWz6Fmpa9PEa_Mx-10" value="ApplicationName2=2345" style="text;strokeColor=none;fillColor=none;align=left;verticalAlign=middle;spacingLeft=4;spacingRight=4;overflow=hidden;points=[[0,0.5],[1,0.5]];portConstraint=eastwest;rotatable=0;whiteSpace=wrap;html=1;" parent="6xJFzuWz6Fmpa9PEa_Mx-8" vertex="1">
          <mxGeometry y="60" width="140" height="30" as="geometry" />
        </mxCell>
        <mxCell id="6xJFzuWz6Fmpa9PEa_Mx-11" value="ApplicationName2=3456" style="text;strokeColor=none;fillColor=none;align=left;verticalAlign=middle;spacingLeft=4;spacingRight=4;overflow=hidden;points=[[0,0.5],[1,0.5]];portConstraint=eastwest;rotatable=0;whiteSpace=wrap;html=1;" parent="6xJFzuWz6Fmpa9PEa_Mx-8" vertex="1">
          <mxGeometry y="90" width="140" height="30" as="geometry" />
        </mxCell>
        <mxCell id="6xJFzuWz6Fmpa9PEa_Mx-12" value="UAT Environment" style="swimlane;whiteSpace=wrap;html=1;" parent="6xJFzuWz6Fmpa9PEa_Mx-2" vertex="1">
          <mxGeometry x="220" y="710" width="200" height="200" as="geometry" />
        </mxCell>
        <mxCell id="6xJFzuWz6Fmpa9PEa_Mx-13" value="&lt;h1&gt;Credentials&lt;/h1&gt;&lt;p&gt;Client ID: 123-456-789&lt;/p&gt;&lt;p&gt;Client Secret: A19d6a8fg7q&lt;/p&gt;" style="text;html=1;strokeColor=none;fillColor=none;spacing=5;spacingTop=-20;whiteSpace=wrap;overflow=hidden;rounded=0;" parent="6xJFzuWz6Fmpa9PEa_Mx-12" vertex="1">
          <mxGeometry x="20" y="30" width="160" height="120" as="geometry" />
        </mxCell>
        <mxCell id="6xJFzuWz6Fmpa9PEa_Mx-14" value="DEV Environment" style="swimlane;whiteSpace=wrap;html=1;" parent="6xJFzuWz6Fmpa9PEa_Mx-2" vertex="1">
          <mxGeometry x="10" y="710" width="200" height="200" as="geometry" />
        </mxCell>
        <mxCell id="6xJFzuWz6Fmpa9PEa_Mx-15" value="&lt;h1&gt;Credentials&lt;/h1&gt;&lt;p&gt;Client ID: 123-456-789&lt;/p&gt;&lt;p&gt;Client Secret: A19d6a8fg7q&lt;/p&gt;" style="text;html=1;strokeColor=none;fillColor=none;spacing=5;spacingTop=-20;whiteSpace=wrap;overflow=hidden;rounded=0;" parent="6xJFzuWz6Fmpa9PEa_Mx-14" vertex="1">
          <mxGeometry x="20" y="30" width="160" height="120" as="geometry" />
        </mxCell>
        <mxCell id="6xJFzuWz6Fmpa9PEa_Mx-16" value="PROD Environment" style="swimlane;whiteSpace=wrap;html=1;" parent="6xJFzuWz6Fmpa9PEa_Mx-2" vertex="1">
          <mxGeometry x="440" y="710" width="200" height="200" as="geometry" />
        </mxCell>
        <mxCell id="6xJFzuWz6Fmpa9PEa_Mx-17" value="&lt;h1&gt;Credentials&lt;/h1&gt;&lt;p&gt;Client ID: 123-456-789&lt;/p&gt;&lt;p&gt;Client Secret: A19d6a8fg7q&lt;/p&gt;" style="text;html=1;strokeColor=none;fillColor=none;spacing=5;spacingTop=-20;whiteSpace=wrap;overflow=hidden;rounded=0;" parent="6xJFzuWz6Fmpa9PEa_Mx-16" vertex="1">
          <mxGeometry x="20" y="30" width="160" height="120" as="geometry" />
        </mxCell>
        <mxCell id="6xJFzuWz6Fmpa9PEa_Mx-18" value="" style="curved=1;endArrow=classic;html=1;rounded=0;exitX=1;exitY=0.5;exitDx=0;exitDy=0;entryX=0;entryY=0.5;entryDx=0;entryDy=0;" parent="6xJFzuWz6Fmpa9PEa_Mx-2" target="6xJFzuWz6Fmpa9PEa_Mx-31" edge="1">
          <mxGeometry width="50" height="50" relative="1" as="geometry">
            <mxPoint x="400" y="795" as="sourcePoint" />
            <mxPoint x="1070" y="240" as="targetPoint" />
            <Array as="points">
              <mxPoint x="380" y="625" />
              <mxPoint x="740" y="315" />
            </Array>
          </mxGeometry>
        </mxCell>
        <mxCell id="6xJFzuWz6Fmpa9PEa_Mx-19" value="" style="curved=1;endArrow=classic;html=1;rounded=0;exitX=1;exitY=0.75;exitDx=0;exitDy=0;entryX=0;entryY=0.5;entryDx=0;entryDy=0;" parent="6xJFzuWz6Fmpa9PEa_Mx-2" target="6xJFzuWz6Fmpa9PEa_Mx-32" edge="1">
          <mxGeometry width="50" height="50" relative="1" as="geometry">
            <mxPoint x="400" y="825" as="sourcePoint" />
            <mxPoint x="1080" y="260" as="targetPoint" />
            <Array as="points">
              <mxPoint x="430" y="665" />
              <mxPoint x="560" y="475" />
              <mxPoint x="870" y="315" />
            </Array>
          </mxGeometry>
        </mxCell>
        <mxCell id="6xJFzuWz6Fmpa9PEa_Mx-20" value="ps_organization_sandbox" style="rounded=1;whiteSpace=wrap;html=1;" parent="6xJFzuWz6Fmpa9PEa_Mx-2" vertex="1">
          <mxGeometry x="500" y="40" width="150" height="20" as="geometry" />
        </mxCell>
        <mxCell id="6xJFzuWz6Fmpa9PEa_Mx-21" value="ps_organization_prod" style="rounded=1;whiteSpace=wrap;html=1;" parent="6xJFzuWz6Fmpa9PEa_Mx-2" vertex="1">
          <mxGeometry x="500" y="70" width="150" height="20" as="geometry" />
        </mxCell>
        <mxCell id="6xJFzuWz6Fmpa9PEa_Mx-22" value="Source Control" style="swimlane;whiteSpace=wrap;html=1;" parent="6xJFzuWz6Fmpa9PEa_Mx-1" vertex="1">
          <mxGeometry x="40" y="30" width="950" height="780" as="geometry">
            <mxRectangle x="90" y="550" width="100" height="30" as="alternateBounds" />
          </mxGeometry>
        </mxCell>
        <mxCell id="6xJFzuWz6Fmpa9PEa_Mx-23" value="Organization" style="swimlane;whiteSpace=wrap;html=1;" parent="6xJFzuWz6Fmpa9PEa_Mx-22" vertex="1">
          <mxGeometry x="10" y="30" width="940" height="750" as="geometry">
            <mxRectangle x="320" y="120" width="110" height="30" as="alternateBounds" />
          </mxGeometry>
        </mxCell>
        <mxCell id="6xJFzuWz6Fmpa9PEa_Mx-24" value="Secrets and Variables" style="swimlane;whiteSpace=wrap;html=1;" parent="6xJFzuWz6Fmpa9PEa_Mx-23" vertex="1">
          <mxGeometry x="10" y="30" width="450" height="400" as="geometry">
            <mxRectangle x="10" y="30" width="160" height="30" as="alternateBounds" />
          </mxGeometry>
        </mxCell>
        <mxCell id="6xJFzuWz6Fmpa9PEa_Mx-25" value="Secrets" style="swimlane;fontStyle=0;childLayout=stackLayout;horizontal=1;startSize=30;horizontalStack=0;resizeParent=1;resizeParentMax=0;resizeLast=0;collapsible=1;marginBottom=0;whiteSpace=wrap;html=1;" parent="6xJFzuWz6Fmpa9PEa_Mx-24" vertex="1">
          <mxGeometry x="10" y="30" width="200" height="360" as="geometry">
            <mxRectangle x="10" y="30" width="80" height="30" as="alternateBounds" />
          </mxGeometry>
        </mxCell>
        <mxCell id="6xJFzuWz6Fmpa9PEa_Mx-26" value="AP_Organization_ID" style="text;strokeColor=none;fillColor=none;align=left;verticalAlign=middle;spacingLeft=4;spacingRight=4;overflow=hidden;points=[[0,0.5],[1,0.5]];portConstraint=eastwest;rotatable=0;whiteSpace=wrap;html=1;fontColor=#004C99;" parent="6xJFzuWz6Fmpa9PEa_Mx-25" vertex="1">
          <mxGeometry y="30" width="200" height="30" as="geometry" />
        </mxCell>
        <mxCell id="6xJFzuWz6Fmpa9PEa_Mx-27" value="AP_CICD_ConnectedApp_ClientID" style="text;strokeColor=none;fillColor=none;align=left;verticalAlign=middle;spacingLeft=4;spacingRight=4;overflow=hidden;points=[[0,0.5],[1,0.5]];portConstraint=eastwest;rotatable=0;whiteSpace=wrap;html=1;fontColor=#004C99;" parent="6xJFzuWz6Fmpa9PEa_Mx-25" vertex="1">
          <mxGeometry y="60" width="200" height="30" as="geometry" />
        </mxCell>
        <mxCell id="6xJFzuWz6Fmpa9PEa_Mx-28" value="AP_CICD_ConnectedApp_ClientSecret" style="text;strokeColor=none;fillColor=none;align=left;verticalAlign=middle;spacingLeft=4;spacingRight=4;overflow=hidden;points=[[0,0.5],[1,0.5]];portConstraint=eastwest;rotatable=0;whiteSpace=wrap;html=1;fontColor=#004C99;" parent="6xJFzuWz6Fmpa9PEa_Mx-25" vertex="1">
          <mxGeometry y="90" width="200" height="30" as="geometry" />
        </mxCell>
        <mxCell id="6xJFzuWz6Fmpa9PEa_Mx-29" value="AP_DEV_ClientID" style="text;strokeColor=none;fillColor=none;align=left;verticalAlign=middle;spacingLeft=4;spacingRight=4;overflow=hidden;points=[[0,0.5],[1,0.5]];portConstraint=eastwest;rotatable=0;whiteSpace=wrap;html=1;fontColor=#004C99;" parent="6xJFzuWz6Fmpa9PEa_Mx-25" vertex="1">
          <mxGeometry y="120" width="200" height="30" as="geometry" />
        </mxCell>
        <mxCell id="6xJFzuWz6Fmpa9PEa_Mx-30" value="AP_DEV_ClientSecret" style="text;strokeColor=none;fillColor=none;align=left;verticalAlign=middle;spacingLeft=4;spacingRight=4;overflow=hidden;points=[[0,0.5],[1,0.5]];portConstraint=eastwest;rotatable=0;whiteSpace=wrap;html=1;fontColor=#004C99;" parent="6xJFzuWz6Fmpa9PEa_Mx-25" vertex="1">
          <mxGeometry y="150" width="200" height="30" as="geometry" />
        </mxCell>
        <mxCell id="6xJFzuWz6Fmpa9PEa_Mx-31" value="AP_UAT_ClientID" style="text;strokeColor=none;fillColor=none;align=left;verticalAlign=middle;spacingLeft=4;spacingRight=4;overflow=hidden;points=[[0,0.5],[1,0.5]];portConstraint=eastwest;rotatable=0;whiteSpace=wrap;html=1;fontColor=#004C99;" parent="6xJFzuWz6Fmpa9PEa_Mx-25" vertex="1">
          <mxGeometry y="180" width="200" height="30" as="geometry" />
        </mxCell>
        <mxCell id="6xJFzuWz6Fmpa9PEa_Mx-32" value="AP_UAT_ClientSecret" style="text;strokeColor=none;fillColor=none;align=left;verticalAlign=middle;spacingLeft=4;spacingRight=4;overflow=hidden;points=[[0,0.5],[1,0.5]];portConstraint=eastwest;rotatable=0;whiteSpace=wrap;html=1;fontColor=#004C99;" parent="6xJFzuWz6Fmpa9PEa_Mx-25" vertex="1">
          <mxGeometry y="210" width="200" height="30" as="geometry" />
        </mxCell>
        <mxCell id="6xJFzuWz6Fmpa9PEa_Mx-33" value="AP_PROD_ClientID" style="text;strokeColor=none;fillColor=none;align=left;verticalAlign=middle;spacingLeft=4;spacingRight=4;overflow=hidden;points=[[0,0.5],[1,0.5]];portConstraint=eastwest;rotatable=0;whiteSpace=wrap;html=1;fontColor=#004C99;" parent="6xJFzuWz6Fmpa9PEa_Mx-25" vertex="1">
          <mxGeometry y="240" width="200" height="30" as="geometry" />
        </mxCell>
        <mxCell id="6xJFzuWz6Fmpa9PEa_Mx-34" value="AP_PROD_ClientSecret" style="text;strokeColor=none;fillColor=none;align=left;verticalAlign=middle;spacingLeft=4;spacingRight=4;overflow=hidden;points=[[0,0.5],[1,0.5]];portConstraint=eastwest;rotatable=0;whiteSpace=wrap;html=1;fontColor=#004C99;" parent="6xJFzuWz6Fmpa9PEa_Mx-25" vertex="1">
          <mxGeometry y="270" width="200" height="30" as="geometry" />
        </mxCell>
        <mxCell id="6xJFzuWz6Fmpa9PEa_Mx-35" value="MuleSoft_EE_Rep_Username" style="text;strokeColor=none;fillColor=none;align=left;verticalAlign=middle;spacingLeft=4;spacingRight=4;overflow=hidden;points=[[0,0.5],[1,0.5]];portConstraint=eastwest;rotatable=0;whiteSpace=wrap;html=1;" parent="6xJFzuWz6Fmpa9PEa_Mx-25" vertex="1">
          <mxGeometry y="300" width="200" height="30" as="geometry" />
        </mxCell>
        <mxCell id="6xJFzuWz6Fmpa9PEa_Mx-36" value="MuleSoft_EE_Rep_Password" style="text;strokeColor=none;fillColor=none;align=left;verticalAlign=middle;spacingLeft=4;spacingRight=4;overflow=hidden;points=[[0,0.5],[1,0.5]];portConstraint=eastwest;rotatable=0;whiteSpace=wrap;html=1;" parent="6xJFzuWz6Fmpa9PEa_Mx-25" vertex="1">
          <mxGeometry y="330" width="200" height="30" as="geometry" />
        </mxCell>
        <mxCell id="6xJFzuWz6Fmpa9PEa_Mx-37" value="Variables" style="swimlane;fontStyle=0;childLayout=stackLayout;horizontal=1;startSize=30;horizontalStack=0;resizeParent=1;resizeParentMax=0;resizeLast=0;collapsible=1;marginBottom=0;whiteSpace=wrap;html=1;" parent="6xJFzuWz6Fmpa9PEa_Mx-24" vertex="1">
          <mxGeometry x="220" y="30" width="190" height="90" as="geometry" />
        </mxCell>
        <mxCell id="6xJFzuWz6Fmpa9PEa_Mx-38" value="AP_PrivateSpace_Sandbox_Name" style="text;strokeColor=none;fillColor=none;align=left;verticalAlign=middle;spacingLeft=4;spacingRight=4;overflow=hidden;points=[[0,0.5],[1,0.5]];portConstraint=eastwest;rotatable=0;whiteSpace=wrap;html=1;fontColor=#004C99;" parent="6xJFzuWz6Fmpa9PEa_Mx-37" vertex="1">
          <mxGeometry y="30" width="190" height="30" as="geometry" />
        </mxCell>
        <mxCell id="6xJFzuWz6Fmpa9PEa_Mx-39" value="AP_PrivateSpace_Prod_Name" style="text;strokeColor=none;fillColor=none;align=left;verticalAlign=middle;spacingLeft=4;spacingRight=4;overflow=hidden;points=[[0,0.5],[1,0.5]];portConstraint=eastwest;rotatable=0;whiteSpace=wrap;html=1;fontColor=#004C99;" parent="6xJFzuWz6Fmpa9PEa_Mx-37" vertex="1">
          <mxGeometry y="60" width="190" height="30" as="geometry" />
        </mxCell>
        <mxCell id="6xJFzuWz6Fmpa9PEa_Mx-40" value="Repository" style="swimlane;whiteSpace=wrap;html=1;" parent="6xJFzuWz6Fmpa9PEa_Mx-23" vertex="1">
          <mxGeometry x="480" y="30" width="460" height="650" as="geometry">
            <mxRectangle x="480" y="30" width="150" height="30" as="alternateBounds" />
          </mxGeometry>
        </mxCell>
        <mxCell id="6xJFzuWz6Fmpa9PEa_Mx-41" value="Main" style="rounded=1;whiteSpace=wrap;html=1;" parent="6xJFzuWz6Fmpa9PEa_Mx-40" vertex="1">
          <mxGeometry x="10" y="180" width="120" height="60" as="geometry" />
        </mxCell>
        <mxCell id="6xJFzuWz6Fmpa9PEa_Mx-42" value="Develop" style="rounded=1;whiteSpace=wrap;html=1;" parent="6xJFzuWz6Fmpa9PEa_Mx-40" vertex="1">
          <mxGeometry x="10" y="270" width="120" height="60" as="geometry" />
        </mxCell>
        <mxCell id="6xJFzuWz6Fmpa9PEa_Mx-43" value="Feature/[xyz]" style="rounded=1;whiteSpace=wrap;html=1;" parent="6xJFzuWz6Fmpa9PEa_Mx-40" vertex="1">
          <mxGeometry x="10" y="360" width="120" height="60" as="geometry" />
        </mxCell>
        <mxCell id="6xJFzuWz6Fmpa9PEa_Mx-44" value="Secrets and Variables" style="swimlane;whiteSpace=wrap;html=1;" parent="6xJFzuWz6Fmpa9PEa_Mx-40" vertex="1">
          <mxGeometry x="150" y="310" width="310" height="220" as="geometry">
            <mxRectangle x="150" y="310" width="160" height="30" as="alternateBounds" />
          </mxGeometry>
        </mxCell>
        <mxCell id="6xJFzuWz6Fmpa9PEa_Mx-45" value="Secrets" style="swimlane;fontStyle=0;childLayout=stackLayout;horizontal=1;startSize=30;horizontalStack=0;resizeParent=1;resizeParentMax=0;resizeLast=0;collapsible=1;marginBottom=0;whiteSpace=wrap;html=1;" parent="6xJFzuWz6Fmpa9PEa_Mx-44" vertex="1">
          <mxGeometry x="10" y="30" width="140" height="120" as="geometry" />
        </mxCell>
        <mxCell id="6xJFzuWz6Fmpa9PEa_Mx-46" value="Encryption_Key" style="text;strokeColor=none;fillColor=none;align=left;verticalAlign=middle;spacingLeft=4;spacingRight=4;overflow=hidden;points=[[0,0.5],[1,0.5]];portConstraint=eastwest;rotatable=0;whiteSpace=wrap;html=1;fontColor=#009900;" parent="6xJFzuWz6Fmpa9PEa_Mx-45" vertex="1">
          <mxGeometry y="30" width="140" height="30" as="geometry" />
        </mxCell>
        <mxCell id="6xJFzuWz6Fmpa9PEa_Mx-47" value="Custom_Secret_1" style="text;strokeColor=none;fillColor=none;align=left;verticalAlign=middle;spacingLeft=4;spacingRight=4;overflow=hidden;points=[[0,0.5],[1,0.5]];portConstraint=eastwest;rotatable=0;whiteSpace=wrap;html=1;fontColor=#009900;" parent="6xJFzuWz6Fmpa9PEa_Mx-45" vertex="1">
          <mxGeometry y="60" width="140" height="30" as="geometry" />
        </mxCell>
        <mxCell id="6xJFzuWz6Fmpa9PEa_Mx-48" value="&lt;font color=&quot;#009900&quot;&gt;Custom_Secret_2&lt;/font&gt;" style="text;strokeColor=none;fillColor=none;align=left;verticalAlign=middle;spacingLeft=4;spacingRight=4;overflow=hidden;points=[[0,0.5],[1,0.5]];portConstraint=eastwest;rotatable=0;whiteSpace=wrap;html=1;" parent="6xJFzuWz6Fmpa9PEa_Mx-45" vertex="1">
          <mxGeometry y="90" width="140" height="30" as="geometry" />
        </mxCell>
        <mxCell id="6xJFzuWz6Fmpa9PEa_Mx-49" value="Variables" style="swimlane;fontStyle=0;childLayout=stackLayout;horizontal=1;startSize=30;horizontalStack=0;resizeParent=1;resizeParentMax=0;resizeLast=0;collapsible=1;marginBottom=0;whiteSpace=wrap;html=1;" parent="6xJFzuWz6Fmpa9PEa_Mx-44" vertex="1">
          <mxGeometry x="160" y="30" width="140" height="180" as="geometry" />
        </mxCell>
        <mxCell id="6xJFzuWz6Fmpa9PEa_Mx-50" value="App_Mule_Env_Var" style="text;strokeColor=none;fillColor=none;align=left;verticalAlign=middle;spacingLeft=4;spacingRight=4;overflow=hidden;points=[[0,0.5],[1,0.5]];portConstraint=eastwest;rotatable=0;whiteSpace=wrap;html=1;fontColor=#009900;" parent="6xJFzuWz6Fmpa9PEa_Mx-49" vertex="1">
          <mxGeometry y="30" width="140" height="30" as="geometry" />
        </mxCell>
        <mxCell id="6xJFzuWz6Fmpa9PEa_Mx-51" value="Replicas" style="text;strokeColor=none;fillColor=none;align=left;verticalAlign=middle;spacingLeft=4;spacingRight=4;overflow=hidden;points=[[0,0.5],[1,0.5]];portConstraint=eastwest;rotatable=0;whiteSpace=wrap;html=1;fontColor=#009900;" parent="6xJFzuWz6Fmpa9PEa_Mx-49" vertex="1">
          <mxGeometry y="60" width="140" height="30" as="geometry" />
        </mxCell>
        <mxCell id="6xJFzuWz6Fmpa9PEa_Mx-52" value="&lt;font color=&quot;#009900&quot;&gt;vCores&lt;/font&gt;" style="text;strokeColor=none;fillColor=none;align=left;verticalAlign=middle;spacingLeft=4;spacingRight=4;overflow=hidden;points=[[0,0.5],[1,0.5]];portConstraint=eastwest;rotatable=0;whiteSpace=wrap;html=1;" parent="6xJFzuWz6Fmpa9PEa_Mx-49" vertex="1">
          <mxGeometry y="90" width="140" height="30" as="geometry" />
        </mxCell>
        <mxCell id="6xJFzuWz6Fmpa9PEa_Mx-53" value="Application_Name" style="text;strokeColor=none;fillColor=none;align=left;verticalAlign=middle;spacingLeft=4;spacingRight=4;overflow=hidden;points=[[0,0.5],[1,0.5]];portConstraint=eastwest;rotatable=0;whiteSpace=wrap;html=1;fontColor=#009900;" parent="6xJFzuWz6Fmpa9PEa_Mx-49" vertex="1">
          <mxGeometry y="120" width="140" height="30" as="geometry" />
        </mxCell>
        <mxCell id="6xJFzuWz6Fmpa9PEa_Mx-54" value="AP_API_ID" style="text;strokeColor=none;fillColor=none;align=left;verticalAlign=middle;spacingLeft=4;spacingRight=4;overflow=hidden;points=[[0,0.5],[1,0.5]];portConstraint=eastwest;rotatable=0;whiteSpace=wrap;html=1;fontColor=#004C99;" parent="6xJFzuWz6Fmpa9PEa_Mx-49" vertex="1">
          <mxGeometry y="150" width="140" height="30" as="geometry" />
        </mxCell>
        <mxCell id="6xJFzuWz6Fmpa9PEa_Mx-55" value="Hotfix/[1234]" style="rounded=1;whiteSpace=wrap;html=1;" parent="6xJFzuWz6Fmpa9PEa_Mx-40" vertex="1">
          <mxGeometry x="10" y="90" width="120" height="60" as="geometry" />
        </mxCell>
        <mxCell id="6xJFzuWz6Fmpa9PEa_Mx-56" value="Caller workflows?" style="swimlane;fontStyle=0;childLayout=stackLayout;horizontal=1;startSize=30;horizontalStack=0;resizeParent=1;resizeParentMax=0;resizeLast=0;collapsible=1;marginBottom=0;whiteSpace=wrap;html=1;" parent="6xJFzuWz6Fmpa9PEa_Mx-40" vertex="1">
          <mxGeometry x="260" y="30" width="200" height="210" as="geometry" />
        </mxCell>
        <mxCell id="6xJFzuWz6Fmpa9PEa_Mx-57" value="deployment_dev.yaml" style="text;strokeColor=none;fillColor=none;align=left;verticalAlign=middle;spacingLeft=4;spacingRight=4;overflow=hidden;points=[[0,0.5],[1,0.5]];portConstraint=eastwest;rotatable=0;whiteSpace=wrap;html=1;" parent="6xJFzuWz6Fmpa9PEa_Mx-56" vertex="1">
          <mxGeometry y="30" width="200" height="30" as="geometry" />
        </mxCell>
        <mxCell id="6xJFzuWz6Fmpa9PEa_Mx-58" value="deployment_prod.yaml" style="text;strokeColor=none;fillColor=none;align=left;verticalAlign=middle;spacingLeft=4;spacingRight=4;overflow=hidden;points=[[0,0.5],[1,0.5]];portConstraint=eastwest;rotatable=0;whiteSpace=wrap;html=1;" parent="6xJFzuWz6Fmpa9PEa_Mx-56" vertex="1">
          <mxGeometry y="60" width="200" height="30" as="geometry" />
        </mxCell>
        <mxCell id="6xJFzuWz6Fmpa9PEa_Mx-59" value="deployment_uat.yaml" style="text;strokeColor=none;fillColor=none;align=left;verticalAlign=middle;spacingLeft=4;spacingRight=4;overflow=hidden;points=[[0,0.5],[1,0.5]];portConstraint=eastwest;rotatable=0;whiteSpace=wrap;html=1;" parent="6xJFzuWz6Fmpa9PEa_Mx-56" vertex="1">
          <mxGeometry y="90" width="200" height="30" as="geometry" />
        </mxCell>
        <mxCell id="6xJFzuWz6Fmpa9PEa_Mx-60" value="maven_release-prepare.yaml" style="text;strokeColor=none;fillColor=none;align=left;verticalAlign=middle;spacingLeft=4;spacingRight=4;overflow=hidden;points=[[0,0.5],[1,0.5]];portConstraint=eastwest;rotatable=0;whiteSpace=wrap;html=1;" parent="6xJFzuWz6Fmpa9PEa_Mx-56" vertex="1">
          <mxGeometry y="120" width="200" height="30" as="geometry" />
        </mxCell>
        <mxCell id="6xJFzuWz6Fmpa9PEa_Mx-61" value="run_unittest.yaml" style="text;strokeColor=none;fillColor=none;align=left;verticalAlign=middle;spacingLeft=4;spacingRight=4;overflow=hidden;points=[[0,0.5],[1,0.5]];portConstraint=eastwest;rotatable=0;whiteSpace=wrap;html=1;" parent="6xJFzuWz6Fmpa9PEa_Mx-56" vertex="1">
          <mxGeometry y="150" width="200" height="30" as="geometry" />
        </mxCell>
        <mxCell id="6xJFzuWz6Fmpa9PEa_Mx-62" value="deploy_exchange.yaml" style="text;strokeColor=none;fillColor=none;align=left;verticalAlign=middle;spacingLeft=4;spacingRight=4;overflow=hidden;points=[[0,0.5],[1,0.5]];portConstraint=eastwest;rotatable=0;whiteSpace=wrap;html=1;" parent="6xJFzuWz6Fmpa9PEa_Mx-56" vertex="1">
          <mxGeometry y="180" width="200" height="30" as="geometry" />
        </mxCell>
        <mxCell id="6xJFzuWz6Fmpa9PEa_Mx-63" value="Environments" style="swimlane;fontStyle=0;childLayout=stackLayout;horizontal=1;startSize=30;horizontalStack=0;resizeParent=1;resizeParentMax=0;resizeLast=0;collapsible=1;marginBottom=0;whiteSpace=wrap;html=1;" parent="6xJFzuWz6Fmpa9PEa_Mx-40" vertex="1">
          <mxGeometry x="20" y="435" width="100" height="120" as="geometry" />
        </mxCell>
        <mxCell id="6xJFzuWz6Fmpa9PEa_Mx-64" value="Dev" style="text;strokeColor=none;fillColor=none;align=left;verticalAlign=middle;spacingLeft=4;spacingRight=4;overflow=hidden;points=[[0,0.5],[1,0.5]];portConstraint=eastwest;rotatable=0;whiteSpace=wrap;html=1;fontColor=#004C99;" parent="6xJFzuWz6Fmpa9PEa_Mx-63" vertex="1">
          <mxGeometry y="30" width="100" height="30" as="geometry" />
        </mxCell>
        <mxCell id="6xJFzuWz6Fmpa9PEa_Mx-65" value="UAT" style="text;strokeColor=none;fillColor=none;align=left;verticalAlign=middle;spacingLeft=4;spacingRight=4;overflow=hidden;points=[[0,0.5],[1,0.5]];portConstraint=eastwest;rotatable=0;whiteSpace=wrap;html=1;fontColor=#0c4c99;" parent="6xJFzuWz6Fmpa9PEa_Mx-63" vertex="1">
          <mxGeometry y="60" width="100" height="30" as="geometry" />
        </mxCell>
        <mxCell id="6xJFzuWz6Fmpa9PEa_Mx-66" value="&lt;font&gt;Prod&lt;/font&gt;" style="text;strokeColor=none;fillColor=none;align=left;verticalAlign=middle;spacingLeft=4;spacingRight=4;overflow=hidden;points=[[0,0.5],[1,0.5]];portConstraint=eastwest;rotatable=0;whiteSpace=wrap;html=1;fontColor=#004C99;" parent="6xJFzuWz6Fmpa9PEa_Mx-63" vertex="1">
          <mxGeometry y="90" width="100" height="30" as="geometry" />
        </mxCell>
        <mxCell id="6xJFzuWz6Fmpa9PEa_Mx-67" value="Workflow repository" style="swimlane;whiteSpace=wrap;html=1;" parent="6xJFzuWz6Fmpa9PEa_Mx-23" vertex="1">
          <mxGeometry x="10" y="490" width="450" height="250" as="geometry" />
        </mxCell>
        <mxCell id="6xJFzuWz6Fmpa9PEa_Mx-68" value="Reusable workflows" style="swimlane;fontStyle=0;childLayout=stackLayout;horizontal=1;startSize=30;horizontalStack=0;resizeParent=1;resizeParentMax=0;resizeLast=0;collapsible=1;marginBottom=0;whiteSpace=wrap;html=1;" parent="6xJFzuWz6Fmpa9PEa_Mx-67" vertex="1">
          <mxGeometry x="10" y="80" width="200" height="150" as="geometry" />
        </mxCell>
        <mxCell id="6xJFzuWz6Fmpa9PEa_Mx-69" value="unit-test_compile.yaml" style="text;strokeColor=none;fillColor=none;align=left;verticalAlign=middle;spacingLeft=4;spacingRight=4;overflow=hidden;points=[[0,0.5],[1,0.5]];portConstraint=eastwest;rotatable=0;whiteSpace=wrap;html=1;" parent="6xJFzuWz6Fmpa9PEa_Mx-68" vertex="1">
          <mxGeometry y="30" width="200" height="30" as="geometry" />
        </mxCell>
        <mxCell id="6xJFzuWz6Fmpa9PEa_Mx-70" value="package-deploy_exchange-deploy_CH_Dev.yaml" style="text;strokeColor=none;fillColor=none;align=left;verticalAlign=middle;spacingLeft=4;spacingRight=4;overflow=hidden;points=[[0,0.5],[1,0.5]];portConstraint=eastwest;rotatable=0;whiteSpace=wrap;html=1;" parent="6xJFzuWz6Fmpa9PEa_Mx-68" vertex="1">
          <mxGeometry y="60" width="200" height="30" as="geometry" />
        </mxCell>
        <mxCell id="6xJFzuWz6Fmpa9PEa_Mx-71" value="package-deploy_exchange-deploy_CH_Prod.yaml" style="text;strokeColor=none;fillColor=none;align=left;verticalAlign=middle;spacingLeft=4;spacingRight=4;overflow=hidden;points=[[0,0.5],[1,0.5]];portConstraint=eastwest;rotatable=0;whiteSpace=wrap;html=1;" parent="6xJFzuWz6Fmpa9PEa_Mx-68" vertex="1">
          <mxGeometry y="90" width="200" height="30" as="geometry" />
        </mxCell>
        <mxCell id="6xJFzuWz6Fmpa9PEa_Mx-72" value="unit_test-package-deploy_CH_any.yaml" style="text;strokeColor=none;fillColor=none;align=left;verticalAlign=middle;spacingLeft=4;spacingRight=4;overflow=hidden;points=[[0,0.5],[1,0.5]];portConstraint=eastwest;rotatable=0;whiteSpace=wrap;html=1;" parent="6xJFzuWz6Fmpa9PEa_Mx-68" vertex="1">
          <mxGeometry y="120" width="200" height="30" as="geometry" />
        </mxCell>
        <UserObject label="https://docs.github.com/en/actions/&#xa;using-workflows/reusing-workflows" link="https://docs.github.com/en/actions/using-workflows/reusing-workflows" id="6xJFzuWz6Fmpa9PEa_Mx-73">
          <mxCell style="text;whiteSpace=wrap;" parent="6xJFzuWz6Fmpa9PEa_Mx-67" vertex="1">
            <mxGeometry x="230" y="60" width="195" height="40" as="geometry" />
          </mxCell>
        </UserObject>
        <mxCell id="6xJFzuWz6Fmpa9PEa_Mx-74" value="Blue text = Provided by Anypoint Platform" style="text;html=1;align=center;verticalAlign=middle;resizable=0;points=[];autosize=1;strokeColor=none;fillColor=none;fontColor=#004C99;" parent="6xJFzuWz6Fmpa9PEa_Mx-23" vertex="1">
          <mxGeometry x="485" y="710" width="240" height="30" as="geometry" />
        </mxCell>
        <mxCell id="6xJFzuWz6Fmpa9PEa_Mx-75" value="Green text = Provided for each Repository" style="text;html=1;align=center;verticalAlign=middle;resizable=0;points=[];autosize=1;strokeColor=none;fillColor=none;fontColor=#009900;" parent="6xJFzuWz6Fmpa9PEa_Mx-23" vertex="1">
          <mxGeometry x="480" y="690" width="250" height="30" as="geometry" />
        </mxCell>
        <mxCell id="6xJFzuWz6Fmpa9PEa_Mx-76" value="" style="curved=1;endArrow=classic;html=1;rounded=0;exitX=1;exitY=0.5;exitDx=0;exitDy=0;entryX=0;entryY=0.5;entryDx=0;entryDy=0;" parent="6xJFzuWz6Fmpa9PEa_Mx-1" source="6xJFzuWz6Fmpa9PEa_Mx-9" target="6xJFzuWz6Fmpa9PEa_Mx-54" edge="1">
          <mxGeometry width="50" height="50" relative="1" as="geometry">
            <mxPoint x="-30" y="450" as="sourcePoint" />
            <mxPoint x="20" y="400" as="targetPoint" />
            <Array as="points">
              <mxPoint x="-20" y="130" />
              <mxPoint x="-110" y="660" />
              <mxPoint x="710" y="690" />
            </Array>
          </mxGeometry>
        </mxCell>
        <mxCell id="6xJFzuWz6Fmpa9PEa_Mx-77" value="" style="curved=1;endArrow=classic;html=1;rounded=0;exitX=0.442;exitY=1.075;exitDx=0;exitDy=0;entryX=0;entryY=0.5;entryDx=0;entryDy=0;exitPerimeter=0;" parent="6xJFzuWz6Fmpa9PEa_Mx-1" source="6xJFzuWz6Fmpa9PEa_Mx-6" target="6xJFzuWz6Fmpa9PEa_Mx-26" edge="1">
          <mxGeometry width="50" height="50" relative="1" as="geometry">
            <mxPoint x="-30" y="450" as="sourcePoint" />
            <mxPoint x="20" y="400" as="targetPoint" />
            <Array as="points">
              <mxPoint x="-510" y="270" />
              <mxPoint x="-150" y="280" />
              <mxPoint x="-40" y="170" />
            </Array>
          </mxGeometry>
        </mxCell>
        <mxCell id="6xJFzuWz6Fmpa9PEa_Mx-78" value="" style="curved=1;endArrow=classic;html=1;rounded=0;exitX=1;exitY=0.5;exitDx=0;exitDy=0;entryX=0;entryY=0.5;entryDx=0;entryDy=0;" parent="6xJFzuWz6Fmpa9PEa_Mx-1" source="6xJFzuWz6Fmpa9PEa_Mx-5" target="6xJFzuWz6Fmpa9PEa_Mx-27" edge="1">
          <mxGeometry width="50" height="50" relative="1" as="geometry">
            <mxPoint x="-30" y="450" as="sourcePoint" />
            <mxPoint x="20" y="400" as="targetPoint" />
            <Array as="points">
              <mxPoint x="-520" y="150" />
              <mxPoint x="-460" y="290" />
              <mxPoint x="-110" y="310" />
            </Array>
          </mxGeometry>
        </mxCell>
        <mxCell id="6xJFzuWz6Fmpa9PEa_Mx-79" value="" style="curved=1;endArrow=classic;html=1;rounded=0;exitX=1;exitY=0.75;exitDx=0;exitDy=0;entryX=0;entryY=0.5;entryDx=0;entryDy=0;" parent="6xJFzuWz6Fmpa9PEa_Mx-1" source="6xJFzuWz6Fmpa9PEa_Mx-5" target="6xJFzuWz6Fmpa9PEa_Mx-28" edge="1">
          <mxGeometry width="50" height="50" relative="1" as="geometry">
            <mxPoint x="-30" y="450" as="sourcePoint" />
            <mxPoint x="20" y="400" as="targetPoint" />
            <Array as="points">
              <mxPoint x="-540" y="180" />
              <mxPoint x="-460" y="290" />
              <mxPoint x="-300" y="320" />
              <mxPoint x="-140" y="320" />
            </Array>
          </mxGeometry>
        </mxCell>
        <mxCell id="6xJFzuWz6Fmpa9PEa_Mx-80" value="" style="curved=1;endArrow=classic;html=1;rounded=0;exitX=1;exitY=0.5;exitDx=0;exitDy=0;entryX=0;entryY=0.5;entryDx=0;entryDy=0;" parent="6xJFzuWz6Fmpa9PEa_Mx-1" source="6xJFzuWz6Fmpa9PEa_Mx-15" target="6xJFzuWz6Fmpa9PEa_Mx-29" edge="1">
          <mxGeometry width="50" height="50" relative="1" as="geometry">
            <mxPoint x="-30" y="450" as="sourcePoint" />
            <mxPoint x="20" y="400" as="targetPoint" />
            <Array as="points">
              <mxPoint x="-630" y="650" />
              <mxPoint x="-270" y="340" />
            </Array>
          </mxGeometry>
        </mxCell>
        <mxCell id="6xJFzuWz6Fmpa9PEa_Mx-81" value="" style="curved=1;endArrow=classic;html=1;rounded=0;exitX=1;exitY=0.75;exitDx=0;exitDy=0;entryX=0;entryY=0.5;entryDx=0;entryDy=0;" parent="6xJFzuWz6Fmpa9PEa_Mx-1" source="6xJFzuWz6Fmpa9PEa_Mx-15" target="6xJFzuWz6Fmpa9PEa_Mx-30" edge="1">
          <mxGeometry width="50" height="50" relative="1" as="geometry">
            <mxPoint x="-30" y="450" as="sourcePoint" />
            <mxPoint x="20" y="400" as="targetPoint" />
            <Array as="points">
              <mxPoint x="-580" y="690" />
              <mxPoint x="-450" y="500" />
              <mxPoint x="-140" y="340" />
            </Array>
          </mxGeometry>
        </mxCell>
        <mxCell id="6xJFzuWz6Fmpa9PEa_Mx-82" value="" style="curved=1;endArrow=classic;html=1;rounded=0;exitX=1;exitY=0.5;exitDx=0;exitDy=0;entryX=0;entryY=0.5;entryDx=0;entryDy=0;" parent="6xJFzuWz6Fmpa9PEa_Mx-1" target="6xJFzuWz6Fmpa9PEa_Mx-33" edge="1">
          <mxGeometry width="50" height="50" relative="1" as="geometry">
            <mxPoint x="-180" y="820" as="sourcePoint" />
            <mxPoint x="290" y="320" as="targetPoint" />
            <Array as="points">
              <mxPoint x="-200" y="650" />
              <mxPoint x="-100" y="420" />
            </Array>
          </mxGeometry>
        </mxCell>
        <mxCell id="6xJFzuWz6Fmpa9PEa_Mx-83" value="" style="curved=1;endArrow=classic;html=1;rounded=0;exitX=1;exitY=0.75;exitDx=0;exitDy=0;entryX=0;entryY=0.5;entryDx=0;entryDy=0;" parent="6xJFzuWz6Fmpa9PEa_Mx-1" target="6xJFzuWz6Fmpa9PEa_Mx-34" edge="1">
          <mxGeometry width="50" height="50" relative="1" as="geometry">
            <mxPoint x="-180" y="850" as="sourcePoint" />
            <mxPoint x="290" y="350" as="targetPoint" />
            <Array as="points">
              <mxPoint x="-150" y="690" />
              <mxPoint x="-50" y="440" />
            </Array>
          </mxGeometry>
        </mxCell>
        <mxCell id="6xJFzuWz6Fmpa9PEa_Mx-84" value="" style="curved=1;endArrow=classic;html=1;rounded=0;exitX=1;exitY=0.5;exitDx=0;exitDy=0;entryX=1;entryY=0.5;entryDx=0;entryDy=0;" parent="6xJFzuWz6Fmpa9PEa_Mx-1" source="6xJFzuWz6Fmpa9PEa_Mx-20" target="6xJFzuWz6Fmpa9PEa_Mx-38" edge="1">
          <mxGeometry width="50" height="50" relative="1" as="geometry">
            <mxPoint x="50" y="540" as="sourcePoint" />
            <mxPoint x="100" y="490" as="targetPoint" />
            <Array as="points">
              <mxPoint />
              <mxPoint x="540" y="20" />
            </Array>
          </mxGeometry>
        </mxCell>
        <mxCell id="6xJFzuWz6Fmpa9PEa_Mx-85" value="" style="curved=1;endArrow=classic;html=1;rounded=0;exitX=1;exitY=0.5;exitDx=0;exitDy=0;entryX=1;entryY=0.5;entryDx=0;entryDy=0;" parent="6xJFzuWz6Fmpa9PEa_Mx-1" source="6xJFzuWz6Fmpa9PEa_Mx-21" target="6xJFzuWz6Fmpa9PEa_Mx-39" edge="1">
          <mxGeometry width="50" height="50" relative="1" as="geometry">
            <mxPoint x="-150" y="70" as="sourcePoint" />
            <mxPoint x="420" y="165" as="targetPoint" />
            <Array as="points">
              <mxPoint />
              <mxPoint x="540" y="20" />
            </Array>
          </mxGeometry>
        </mxCell>
        <mxCell id="6xJFzuWz6Fmpa9PEa_Mx-86" value="https://docs.github.com/en/rest/&lt;br&gt;actions/secrets?apiVersion=2022-11-28" style="text;html=1;align=center;verticalAlign=middle;resizable=0;points=[];autosize=1;strokeColor=none;fillColor=none;" parent="6xJFzuWz6Fmpa9PEa_Mx-1" vertex="1">
          <mxGeometry x="285" y="313" width="230" height="40" as="geometry" />
        </mxCell>
        <mxCell id="6xJFzuWz6Fmpa9PEa_Mx-87" value="" style="curved=1;endArrow=classic;html=1;rounded=0;exitX=0.25;exitY=0;exitDx=0;exitDy=0;entryX=0;entryY=0.5;entryDx=0;entryDy=0;" parent="6xJFzuWz6Fmpa9PEa_Mx-1" source="6xJFzuWz6Fmpa9PEa_Mx-16" target="6xJFzuWz6Fmpa9PEa_Mx-66" edge="1">
          <mxGeometry width="50" height="50" relative="1" as="geometry">
            <mxPoint x="-170" y="830" as="sourcePoint" />
            <mxPoint x="80" y="385" as="targetPoint" />
            <Array as="points">
              <mxPoint x="-130" y="600" />
              <mxPoint x="-10" y="850" />
              <mxPoint x="530" y="910" />
              <mxPoint x="510" y="630" />
            </Array>
          </mxGeometry>
        </mxCell>
        <mxCell id="6xJFzuWz6Fmpa9PEa_Mx-88" value="" style="curved=1;endArrow=classic;html=1;rounded=0;exitX=0.293;exitY=-0.009;exitDx=0;exitDy=0;entryX=0;entryY=0.5;entryDx=0;entryDy=0;exitPerimeter=0;" parent="6xJFzuWz6Fmpa9PEa_Mx-1" source="6xJFzuWz6Fmpa9PEa_Mx-12" target="6xJFzuWz6Fmpa9PEa_Mx-65" edge="1">
          <mxGeometry width="50" height="50" relative="1" as="geometry">
            <mxPoint x="-300" y="740" as="sourcePoint" />
            <mxPoint x="560" y="640" as="targetPoint" />
            <Array as="points">
              <mxPoint x="-120" y="610" />
              <mxPoint y="860" />
              <mxPoint x="540" y="920" />
              <mxPoint x="510" y="600" />
            </Array>
          </mxGeometry>
        </mxCell>
        <mxCell id="6xJFzuWz6Fmpa9PEa_Mx-89" value="" style="curved=1;endArrow=classic;html=1;rounded=0;exitX=0.323;exitY=-0.02;exitDx=0;exitDy=0;entryX=0;entryY=0.5;entryDx=0;entryDy=0;exitPerimeter=0;" parent="6xJFzuWz6Fmpa9PEa_Mx-1" source="6xJFzuWz6Fmpa9PEa_Mx-14" target="6xJFzuWz6Fmpa9PEa_Mx-64" edge="1">
          <mxGeometry width="50" height="50" relative="1" as="geometry">
            <mxPoint x="-511" y="738" as="sourcePoint" />
            <mxPoint x="560" y="610" as="targetPoint" />
            <Array as="points">
              <mxPoint x="-110" y="620" />
              <mxPoint x="10" y="870" />
              <mxPoint x="550" y="930" />
              <mxPoint x="510" y="570" />
            </Array>
          </mxGeometry>
        </mxCell>
      </root>
    </mxGraphModel>
  </diagram>
  <diagram id="CFAa-k4cOkfpmhpI7uIc" name="Page-2">
    <mxGraphModel dx="2042" dy="1164" grid="1" gridSize="10" guides="1" tooltips="1" connect="1" arrows="1" fold="1" page="1" pageScale="1" pageWidth="827" pageHeight="1169" math="0" shadow="0">
      <root>
        <mxCell id="0" />
        <mxCell id="1" parent="0" />
        <mxCell id="uN1uOv8RAnmjbwNl1Vgs-1" value="" style="image;sketch=0;aspect=fixed;html=1;points=[];align=center;fontSize=12;image=img/lib/mscae/Person.svg;" parent="1" vertex="1">
          <mxGeometry x="119.31000000000002" y="247" width="6.66" height="9" as="geometry" />
        </mxCell>
        <mxCell id="uN1uOv8RAnmjbwNl1Vgs-2" value="" style="image;points=[];aspect=fixed;html=1;align=center;shadow=0;dashed=0;image=img/lib/allied_telesis/computer_and_terminals/Server_Desktop.svg;" parent="1" vertex="1">
          <mxGeometry x="108.25999999999995" y="246" width="8.68" height="11" as="geometry" />
        </mxCell>
        <mxCell id="uN1uOv8RAnmjbwNl1Vgs-3" value="" style="endArrow=none;html=1;rounded=0;" parent="1" edge="1">
          <mxGeometry width="50" height="50" relative="1" as="geometry">
            <mxPoint x="116.58999999999999" y="258" as="sourcePoint" />
            <mxPoint x="119.58999999999999" y="246" as="targetPoint" />
          </mxGeometry>
        </mxCell>
        <mxCell id="uN1uOv8RAnmjbwNl1Vgs-4" value="" style="image;sketch=0;aspect=fixed;html=1;points=[];align=center;fontSize=12;image=img/lib/mscae/Person.svg;" parent="1" vertex="1">
          <mxGeometry x="170.36" y="404" width="10.36" height="14" as="geometry" />
        </mxCell>
        <mxCell id="uN1uOv8RAnmjbwNl1Vgs-5" value="Workflows" style="swimlane;fontStyle=0;childLayout=stackLayout;horizontal=1;startSize=30;horizontalStack=0;resizeParent=1;resizeParentMax=0;resizeLast=0;collapsible=1;marginBottom=0;whiteSpace=wrap;html=1;fillColor=#1ba1e2;fontColor=#ffffff;strokeColor=#006EAF;" parent="1" vertex="1">
          <mxGeometry x="200.00000000000006" y="217" width="162.54" height="200" as="geometry" />
        </mxCell>
        <mxCell id="uN1uOv8RAnmjbwNl1Vgs-6" value="Triggered by" style="edgeStyle=orthogonalEdgeStyle;rounded=0;orthogonalLoop=1;jettySize=auto;html=1;" parent="uN1uOv8RAnmjbwNl1Vgs-5" source="uN1uOv8RAnmjbwNl1Vgs-7" edge="1">
          <mxGeometry relative="1" as="geometry">
            <mxPoint x="279.99999999999994" y="45" as="targetPoint" />
          </mxGeometry>
        </mxCell>
        <mxCell id="uN1uOv8RAnmjbwNl1Vgs-7" value="unit_test-compile.yml" style="text;strokeColor=#2D7600;fillColor=#60a917;align=left;verticalAlign=middle;spacingLeft=4;spacingRight=4;overflow=hidden;points=[[0,0.5],[1,0.5]];portConstraint=eastwest;rotatable=0;whiteSpace=wrap;html=1;fontColor=#ffffff;" parent="uN1uOv8RAnmjbwNl1Vgs-5" vertex="1">
          <mxGeometry y="30" width="162.54" height="30" as="geometry" />
        </mxCell>
        <mxCell id="uN1uOv8RAnmjbwNl1Vgs-8" value="package-deploy_exchange-deploy_ch_dev.yml" style="text;strokeColor=#005700;fillColor=#008a00;align=left;verticalAlign=middle;spacingLeft=4;spacingRight=4;overflow=hidden;points=[[0,0.5],[1,0.5]];portConstraint=eastwest;rotatable=0;whiteSpace=wrap;html=1;fontColor=#ffffff;" parent="uN1uOv8RAnmjbwNl1Vgs-5" vertex="1">
          <mxGeometry y="60" width="162.54" height="50" as="geometry" />
        </mxCell>
        <mxCell id="uN1uOv8RAnmjbwNl1Vgs-13" value="maven-release-prepare.yml" style="text;strokeColor=#2D7600;fillColor=#60a917;align=left;verticalAlign=middle;spacingLeft=4;spacingRight=4;overflow=hidden;points=[[0,0.5],[1,0.5]];portConstraint=eastwest;rotatable=0;whiteSpace=wrap;html=1;fontColor=#ffffff;" parent="uN1uOv8RAnmjbwNl1Vgs-5" vertex="1">
          <mxGeometry y="110" width="162.54" height="30" as="geometry" />
        </mxCell>
        <mxCell id="uN1uOv8RAnmjbwNl1Vgs-31" value="package-deploy_exchange-deploy_ch_prod.yml" style="text;strokeColor=#005700;fillColor=#008a00;align=left;verticalAlign=middle;spacingLeft=4;spacingRight=4;overflow=hidden;points=[[0,0.5],[1,0.5]];portConstraint=eastwest;rotatable=0;whiteSpace=wrap;html=1;fontColor=#ffffff;" parent="uN1uOv8RAnmjbwNl1Vgs-5" vertex="1">
          <mxGeometry y="140" width="162.54" height="30" as="geometry" />
        </mxCell>
        <mxCell id="uN1uOv8RAnmjbwNl1Vgs-14" value="unit_test-package-deploy_ch_any.yml" style="text;strokeColor=#2D7600;fillColor=#60a917;align=left;verticalAlign=middle;spacingLeft=4;spacingRight=4;overflow=hidden;points=[[0,0.5],[1,0.5]];portConstraint=eastwest;rotatable=0;whiteSpace=wrap;html=1;fontColor=#ffffff;" parent="uN1uOv8RAnmjbwNl1Vgs-5" vertex="1">
          <mxGeometry y="170" width="162.54" height="30" as="geometry" />
        </mxCell>
        <mxCell id="uN1uOv8RAnmjbwNl1Vgs-15" value="- PR raised to develop branch" style="rounded=1;whiteSpace=wrap;html=1;" parent="1" vertex="1">
          <mxGeometry x="480" y="250" width="170" height="20" as="geometry" />
        </mxCell>
        <mxCell id="uN1uOv8RAnmjbwNl1Vgs-16" value="- PR to develop is closed and merged" style="rounded=1;whiteSpace=wrap;html=1;" parent="1" vertex="1">
          <mxGeometry x="479.54" y="287" width="170" height="30" as="geometry" />
        </mxCell>
        <mxCell id="uN1uOv8RAnmjbwNl1Vgs-17" value="" style="image;points=[];aspect=fixed;html=1;align=center;shadow=0;dashed=0;image=img/lib/allied_telesis/computer_and_terminals/Server_Desktop.svg;" parent="1" vertex="1">
          <mxGeometry x="130.19" y="230" width="15.78" height="20" as="geometry" />
        </mxCell>
        <mxCell id="uN1uOv8RAnmjbwNl1Vgs-18" value="" style="image;points=[];aspect=fixed;html=1;align=center;shadow=0;dashed=0;image=img/lib/allied_telesis/computer_and_terminals/Server_Desktop.svg;" parent="1" vertex="1">
          <mxGeometry x="370" y="250" width="15.78" height="20" as="geometry" />
        </mxCell>
        <mxCell id="uN1uOv8RAnmjbwNl1Vgs-19" value="" style="image;sketch=0;aspect=fixed;html=1;points=[];align=center;fontSize=12;image=img/lib/mscae/Person.svg;" parent="1" vertex="1">
          <mxGeometry x="130.19000000000005" y="404" width="10.36" height="14" as="geometry" />
        </mxCell>
        <mxCell id="uN1uOv8RAnmjbwNl1Vgs-21" value="" style="image;sketch=0;aspect=fixed;html=1;points=[];align=center;fontSize=12;image=img/lib/mscae/Person.svg;" parent="1" vertex="1">
          <mxGeometry x="79.28000000000003" y="404" width="10.36" height="14" as="geometry" />
        </mxCell>
        <mxCell id="uN1uOv8RAnmjbwNl1Vgs-23" value="Prod" style="rounded=1;whiteSpace=wrap;html=1;" parent="1" vertex="1">
          <mxGeometry x="60.00000000000006" y="431" width="29.64" height="20" as="geometry" />
        </mxCell>
        <mxCell id="uN1uOv8RAnmjbwNl1Vgs-24" value="Dev" style="rounded=1;whiteSpace=wrap;html=1;" parent="1" vertex="1">
          <mxGeometry x="146.33" y="431" width="24.03" height="20" as="geometry" />
        </mxCell>
        <mxCell id="uN1uOv8RAnmjbwNl1Vgs-25" value="UAT" style="rounded=1;whiteSpace=wrap;html=1;" parent="1" vertex="1">
          <mxGeometry x="100.36" y="431" width="31.93" height="20" as="geometry" />
        </mxCell>
        <mxCell id="uN1uOv8RAnmjbwNl1Vgs-26" value="Triggered by" style="edgeStyle=orthogonalEdgeStyle;rounded=0;orthogonalLoop=1;jettySize=auto;html=1;" parent="1" edge="1">
          <mxGeometry relative="1" as="geometry">
            <mxPoint x="479.54" y="342" as="targetPoint" />
            <mxPoint x="362.5400000000001" y="342" as="sourcePoint" />
          </mxGeometry>
        </mxCell>
        <mxCell id="uN1uOv8RAnmjbwNl1Vgs-27" value="- PR to main is closed and merged" style="rounded=1;whiteSpace=wrap;html=1;" parent="1" vertex="1">
          <mxGeometry x="479.54" y="325" width="170" height="30" as="geometry" />
        </mxCell>
        <mxCell id="uN1uOv8RAnmjbwNl1Vgs-28" value="" style="image;points=[];aspect=fixed;html=1;align=center;shadow=0;dashed=0;image=img/lib/allied_telesis/computer_and_terminals/Server_Desktop.svg;" parent="1" vertex="1">
          <mxGeometry x="370" y="330" width="15.78" height="20" as="geometry" />
        </mxCell>
        <mxCell id="uN1uOv8RAnmjbwNl1Vgs-29" value="Triggered by" style="edgeStyle=orthogonalEdgeStyle;rounded=0;orthogonalLoop=1;jettySize=auto;html=1;entryX=-0.009;entryY=0.49;entryDx=0;entryDy=0;entryPerimeter=0;" parent="1" source="uN1uOv8RAnmjbwNl1Vgs-8" target="uN1uOv8RAnmjbwNl1Vgs-16" edge="1">
          <mxGeometry relative="1" as="geometry">
            <mxPoint x="450" y="302" as="targetPoint" />
          </mxGeometry>
        </mxCell>
        <mxCell id="uN1uOv8RAnmjbwNl1Vgs-30" value="" style="image;points=[];aspect=fixed;html=1;align=center;shadow=0;dashed=0;image=img/lib/allied_telesis/computer_and_terminals/Server_Desktop.svg;" parent="1" vertex="1">
          <mxGeometry x="370" y="292" width="15.78" height="20" as="geometry" />
        </mxCell>
        <mxCell id="uN1uOv8RAnmjbwNl1Vgs-11" style="edgeStyle=orthogonalEdgeStyle;rounded=0;orthogonalLoop=1;jettySize=auto;html=1;entryX=0.5;entryY=0;entryDx=0;entryDy=0;" parent="1" source="uN1uOv8RAnmjbwNl1Vgs-14" target="uN1uOv8RAnmjbwNl1Vgs-23" edge="1">
          <mxGeometry relative="1" as="geometry">
            <mxPoint x="400" y="400" as="targetPoint" />
          </mxGeometry>
        </mxCell>
        <mxCell id="uN1uOv8RAnmjbwNl1Vgs-10" style="edgeStyle=orthogonalEdgeStyle;rounded=0;orthogonalLoop=1;jettySize=auto;html=1;entryX=0.5;entryY=0;entryDx=0;entryDy=0;" parent="1" source="uN1uOv8RAnmjbwNl1Vgs-14" target="uN1uOv8RAnmjbwNl1Vgs-25" edge="1">
          <mxGeometry relative="1" as="geometry">
            <mxPoint x="120" y="400" as="targetPoint" />
          </mxGeometry>
        </mxCell>
        <mxCell id="uN1uOv8RAnmjbwNl1Vgs-9" style="edgeStyle=orthogonalEdgeStyle;rounded=0;orthogonalLoop=1;jettySize=auto;html=1;entryX=0.5;entryY=0;entryDx=0;entryDy=0;" parent="1" source="uN1uOv8RAnmjbwNl1Vgs-14" target="uN1uOv8RAnmjbwNl1Vgs-24" edge="1">
          <mxGeometry relative="1" as="geometry">
            <mxPoint x="160" y="400" as="targetPoint" />
          </mxGeometry>
        </mxCell>
        <mxCell id="kAZexoyKW-UqTv4KHoX1-1" style="edgeStyle=orthogonalEdgeStyle;rounded=0;orthogonalLoop=1;jettySize=auto;html=1;entryX=0.5;entryY=0;entryDx=0;entryDy=0;" parent="1" edge="1">
          <mxGeometry relative="1" as="geometry">
            <mxPoint x="75" y="431" as="targetPoint" />
            <mxPoint x="200" y="402" as="sourcePoint" />
          </mxGeometry>
        </mxCell>
      </root>
    </mxGraphModel>
  </diagram>
</mxfile>
